<svg width="300" height="200" viewBox="0 0 300 200" fill="none" xmlns="http://www.w3.org/2000/svg">
<path d="M86 66.5451C86 62.3779 89.3779 59 93.5451 59H206.727C210.895 59 214.273 62.3779 214.273 66.5451V134.454C214.273 138.622 210.895 142 206.727 142H93.5451C89.3779 142 86 138.622 86 134.454V66.5451Z" fill="#76B545"/>
<path d="M105.618 115.757H100.077L102.233 109.125C102.452 108.47 102.67 107.788 102.833 107.081H102.888C103.052 107.814 103.298 108.548 103.516 109.204L105.618 115.757ZM110.886 121.838L104.827 104.146H101.169L95.0828 121.838H98.0574L99.3132 118.037H106.382L107.61 121.838H110.886Z" fill="white"/>
<path d="M139.691 108.81H136.703L133.715 116.568C133.453 117.276 133.243 118.063 133.007 118.902H132.954C132.745 118.089 132.509 117.302 132.221 116.542L129.285 108.81H126.166L131.356 121.837H134.527L139.691 108.81Z" fill="white"/>
<path d="M121.324 114.944C121.324 117.198 120.171 119.793 118.074 119.793C116.318 119.793 115.243 118.325 115.243 115.704C115.243 112.192 117.025 110.829 119.253 110.829C119.934 110.829 120.616 110.907 121.324 111.064V114.944ZM124.102 121.838V104.146H121.324V108.707C120.616 108.653 119.987 108.601 119.358 108.601C115.138 108.601 112.307 111.484 112.307 115.966C112.307 119.899 114.273 122.1 117.287 122.1C119.331 122.1 120.879 121.026 121.638 119.085H121.691C121.507 120.135 121.481 121.157 121.481 121.838H124.102Z" fill="white"/>
<path d="M162.075 108.846C157.434 108.849 155.238 111.711 155.235 115.816C155.235 117.429 155.601 118.985 156.578 120.138C157.557 121.288 159.146 122.041 161.614 122.041C162.893 122.041 164.052 121.814 165.066 121.473L164.762 119.312C164.048 119.613 163.025 119.833 162.178 119.837C160.762 119.837 159.749 119.436 159.098 118.68C158.445 117.922 158.151 116.813 158.151 115.395C158.151 114.129 158.445 113.036 159.075 112.253C159.706 111.474 160.676 111.012 162.013 111.012C162.943 111.012 163.789 111.142 164.676 111.388L164.96 109.182C164.073 108.957 163.127 108.846 162.075 108.846Z" fill="#1E593E"/>
<path d="M150.061 115.259C150.061 118.274 148.436 119.689 146.548 119.689C144.32 119.689 143.036 118.143 143.036 115.206C143.036 112.219 144.818 110.908 146.574 110.908C148.855 110.908 150.061 112.481 150.061 115.259ZM153.017 115.076C153.017 110.489 150.396 108.549 146.883 108.549C142.899 108.549 140.199 111.564 140.199 115.496C140.199 120.082 142.716 122.1 146.359 122.1C150.238 122.1 153.017 119.086 153.017 115.076Z" fill="white"/>
<path d="M172.298 113.036C172.425 112.633 172.593 112.134 172.697 111.635L172.772 111.609C172.911 112.152 173.057 112.653 173.203 113.075L174.562 117.327L174.578 117.372H174.529H170.933H170.885L170.9 117.327L172.298 113.036ZM174.544 108.941H171.168L166.822 121.867H169.423L170.253 119.331L175.154 119.308L176.016 121.867H178.89L174.544 108.941Z" fill="#1E593E"/>
<path d="M198.342 119.873C197.803 119.873 197.527 119.834 197.15 119.778L197.118 110.987C197.569 110.917 197.887 110.896 198.512 110.896C200.004 110.896 200.987 111.314 201.59 112.088C202.193 112.861 202.417 113.978 202.417 115.376C202.417 116.919 202.067 118.046 201.376 118.786C200.688 119.525 199.669 119.873 198.342 119.873ZM198.701 108.865C196.965 108.865 195.558 108.924 194.475 108.96V121.849C195.653 121.886 196.608 121.946 198.074 121.946C200.368 121.946 202.158 121.363 203.377 120.231C204.596 119.099 205.248 117.409 205.248 115.185C205.248 112.908 204.69 111.329 203.598 110.323C202.504 109.312 200.87 108.865 198.701 108.865Z" fill="#1E593E"/>
<path d="M185.221 114.637C184.803 114.637 184.262 114.619 184.07 114.599L184.037 110.815C184.342 110.743 184.906 110.722 185.306 110.722C186.178 110.722 186.843 110.878 187.294 111.195C187.747 111.511 187.974 111.991 187.974 112.622C187.974 113.237 187.699 113.744 187.212 114.094C186.729 114.444 186.042 114.637 185.221 114.637ZM185.598 108.748C183.963 108.748 182.494 108.769 181.391 108.825V121.752H184.037V116.416L184.365 116.382L188.395 121.752H191.692L188.286 117.436C187.93 116.991 187.534 116.492 187.138 116.011L187.099 115.967L187.16 115.958C189.216 115.65 190.767 114.28 190.767 112.375C190.767 111.055 190.248 110.152 189.346 109.576C188.445 109 187.15 108.748 185.598 108.748Z" fill="#1E593E"/>
<path d="M136.488 128.647L134.958 132.846H135.587L135.961 131.79H137.879L138.253 132.846H138.942L137.399 128.647H136.488ZM140.572 128.647V132.846H141.173V131.396C141.173 130.68 141.153 129.598 141.126 129.117C141.274 129.418 141.434 129.725 141.641 130.052L143.359 132.846H144.16V128.647H143.566V129.618C143.566 130.366 143.586 131.476 143.613 132.031C143.446 131.71 143.258 131.37 143.058 131.042L141.574 128.647H140.572ZM146.039 128.647L147.146 132.846H147.881L148.723 129.805C148.797 129.545 148.851 129.291 148.884 129.03C148.931 129.284 148.984 129.551 149.058 129.812L149.92 132.846H150.675L151.783 128.647H151.177L150.474 131.396C150.415 131.637 150.367 131.871 150.321 132.131C150.268 131.857 150.2 131.57 150.134 131.335L149.361 128.647H148.489L147.741 131.309C147.668 131.577 147.607 131.857 147.56 132.144C147.507 131.85 147.453 131.577 147.373 131.276L146.693 128.647H146.039ZM154.369 128.647L152.838 132.846H153.467L153.841 131.79H155.76L156.134 132.846H156.822L155.28 128.647H154.369ZM158.452 128.647V132.846H160.685V132.318H159.068V128.647H158.452ZM161.278 128.647V128.849H162.575V132.846H163.19V128.849H164.493V128.647H161.278ZM166.209 128.647C165.947 128.875 165.807 129.188 165.807 129.551C165.807 130.988 167.839 130.587 167.839 131.603C167.839 132.158 167.391 132.378 166.849 132.378C166.535 132.378 166.181 132.306 165.92 132.212L165.887 132.799C166.148 132.867 166.468 132.906 166.796 132.906C167.845 132.906 168.48 132.326 168.48 131.516C168.48 130.106 166.442 130.46 166.442 129.485C166.442 129.063 166.762 128.783 167.377 128.783C167.645 128.783 167.932 128.829 168.193 128.903L168.208 128.647H166.209ZM172.856 128.647V132.846H175.088V132.318H173.47V128.647H172.856ZM176.704 132.846H177.318V128.647H176.704V132.846ZM179.582 128.647V132.846H181.901V132.331H180.197V130.768H181.821V130.273H180.197V128.843H181.901V128.647H179.582ZM183.932 128.647V132.846C184.374 132.853 184.815 132.867 185.082 132.867C186.492 132.867 186.827 132.037 186.827 131.496C186.827 131.029 186.546 130.567 185.918 130.46C186.406 130.293 186.727 129.873 186.727 129.397C186.727 129.086 186.626 128.832 186.42 128.649L183.932 128.647ZM188.802 128.647V132.846H191.035V132.318H189.417V128.647H188.802ZM192.651 132.846H193.265V128.647H192.651V132.846ZM195.529 128.647V132.846H196.131V131.396C196.131 130.68 196.11 129.598 196.084 129.117C196.231 129.418 196.391 129.725 196.599 130.052L198.316 132.846H199.118V128.647H198.523V129.618C198.523 130.366 198.543 131.476 198.57 132.031C198.404 131.71 198.216 131.37 198.016 131.042L196.532 128.647H195.529ZM202.017 128.647C201.35 129.06 200.974 129.797 200.974 130.68C200.974 132.078 201.849 132.906 203.213 132.906C203.708 132.906 204.256 132.813 204.704 132.646V130.547H204.095V132.252C203.855 132.326 203.601 132.372 203.3 132.372C202.284 132.372 201.629 131.731 201.629 130.607C201.629 129.405 202.424 128.803 203.353 128.803C203.768 128.803 204.182 128.89 204.556 129.043L204.621 128.647H202.017ZM186.185 131.516C186.185 132.011 185.857 132.365 185.123 132.365C184.855 132.365 184.661 132.351 184.548 132.331V130.754C184.655 130.748 184.889 130.748 184.968 130.748C185.664 130.748 186.185 130.935 186.185 131.516ZM186.091 129.498C186.091 129.992 185.697 130.286 184.955 130.286C184.795 130.286 184.674 130.286 184.548 130.28V128.823C184.728 128.816 184.948 128.81 185.156 128.81C185.884 128.81 186.091 129.097 186.091 129.498ZM155.593 131.302H154.002L154.583 129.699C154.67 129.471 154.737 129.237 154.79 129.017C154.857 129.25 154.918 129.465 155.004 129.692L155.593 131.302ZM137.712 131.302H136.121L136.703 129.699C136.79 129.471 136.856 129.237 136.91 129.017C136.977 129.25 137.037 129.465 137.124 129.692L137.712 131.302Z" fill="white"/>
<path d="M137.399 128.647L137.284 128.334H136.603L136.488 128.647H137.399ZM141.574 128.647L141.38 128.334H140.571V128.647H141.574ZM144.161 128.334H143.566V128.647H144.161V128.334ZM146.692 128.647L146.611 128.334H145.956L146.039 128.647H146.692ZM149.361 128.647L149.272 128.334H148.576L148.489 128.647H149.361ZM151.783 128.647L151.864 128.334H151.256L151.177 128.647H151.783ZM155.28 128.647L155.164 128.334H154.483L154.369 128.647H155.28ZM159.067 128.334H158.453V128.647H159.067V128.334ZM164.492 128.334H161.278V128.647H164.492V128.334ZM168.208 128.647L168.226 128.355C167.959 128.301 167.685 128.273 167.41 128.273C166.891 128.273 166.484 128.414 166.21 128.649L168.208 128.647ZM173.47 128.334H172.856V128.647H173.47V128.334ZM177.319 128.334H176.704V128.647H177.319V128.334ZM181.901 128.334H179.582V128.647H181.901V128.334ZM186.421 128.647C186.181 128.432 185.796 128.314 185.263 128.314C184.721 128.314 184.26 128.327 183.933 128.334V128.647H186.421ZM189.418 128.334H188.803V128.647H189.418V128.334ZM193.265 128.334H192.651V128.647H193.265V128.334ZM196.531 128.647L196.338 128.334H195.529V128.647H196.531ZM199.118 128.334H198.523V128.647H199.118V128.334ZM204.621 128.647L204.65 128.468C204.249 128.341 203.842 128.273 203.414 128.273C202.865 128.273 202.395 128.408 202.017 128.643L204.621 128.647Z" fill="white"/>
</svg>
