<svg width="300" height="200" viewBox="0 0 300 200" fill="none" xmlns="http://www.w3.org/2000/svg">
<path fill-rule="evenodd" clip-rule="evenodd" d="M87.2316 89.4106H81.9467L84.7586 80.1851L87.2316 89.4106ZM79.2113 99.5755L81.01 93.5101H88.1319L89.8176 99.5755H96.4147L89.8541 76.4558C89.4805 75.1009 88.6567 74.4619 87.2316 74.4619H77.8992V76.6443H78.6847C79.6596 76.6443 80.1845 77.0232 80.1845 77.7757C80.1845 78.2663 80.0715 78.6784 79.6979 79.8097L73.1373 99.5755H79.2113Z" fill="#113388"/>
<path d="M104.013 99.5745V76.3832C104.013 75.1733 103.302 74.4609 102.141 74.4609H96.3693V76.6434H96.7429C97.7161 76.6434 98.128 77.0589 98.128 78.0366V99.5745H104.013Z" fill="#113388"/>
<path d="M114.013 99.5745V76.3832C114.013 75.1733 113.3 74.4609 112.138 74.4609H106.365V76.6434H106.742C107.715 76.6434 108.127 77.0589 108.127 78.0366V99.5745H114.013Z" fill="#113388"/>
<path fill-rule="evenodd" clip-rule="evenodd" d="M124.27 76.7601C124.27 75.063 123.034 74.0469 120.898 74.0469C118.8 74.0469 117.523 75.063 117.523 76.7601C117.523 78.4536 118.8 79.468 120.898 79.468C123.034 79.468 124.27 78.4536 124.27 76.7601ZM124.158 99.5742V82.6683C124.158 81.4671 123.446 80.7495 122.285 80.7495H116.588V82.897H116.927C117.9 82.897 118.312 83.3475 118.312 84.327V99.5742H124.158Z" fill="#113388"/>
<path fill-rule="evenodd" clip-rule="evenodd" d="M137.044 90.5404V94.1929C136.067 95.2125 134.869 95.8131 133.856 95.8131C132.807 95.8131 132.431 95.2876 132.431 93.8944C132.431 92.4994 132.732 91.8568 133.781 91.4448C134.567 91.1061 135.582 90.804 137.044 90.5404ZM129.134 86.1354C131.084 85.1943 133.218 84.6671 134.908 84.6671C136.48 84.6671 137.044 85.2328 137.044 86.8879V87.3034C134.642 87.6771 133.893 87.829 132.546 88.131C131.757 88.3213 131.046 88.5448 130.335 88.8469C127.97 89.7879 126.847 91.6316 126.847 94.4565C126.847 98.034 128.384 99.7677 131.569 99.7677C132.732 99.7677 133.781 99.539 134.716 99.1619C135.545 98.7865 136.03 98.4897 137.229 97.5451V97.807C137.229 98.975 137.831 99.5756 138.993 99.5756H144.35V97.5451H144.089C143.079 97.5451 142.704 97.0947 142.704 95.8882V86.9246C142.704 82.1459 141.053 80.4873 136.294 80.4873C134.756 80.4873 133.257 80.6759 131.797 81.0128C130.335 81.3533 129.584 81.6536 127.822 82.5196L129.134 86.1354Z" fill="#113388"/>
<path fill-rule="evenodd" clip-rule="evenodd" d="M152.884 99.5745V86.8484C153.863 85.7607 154.873 85.2683 156.039 85.2683C157.271 85.2683 157.573 85.7607 157.573 87.6393V99.5745H163.421V86.7733C163.421 83.8 163.195 82.8607 162.255 81.8411C161.471 80.9733 160.27 80.5264 158.734 80.5264C156.445 80.5264 154.833 81.2405 152.66 83.2727V82.5185C152.66 81.3522 152.062 80.7481 150.863 80.7481H145.318V82.8956H145.651C146.625 82.8956 147.04 83.3478 147.04 84.3273V99.5745H152.884Z" fill="#113388"/>
<path d="M180.765 95.6254H172.594L180.392 84.6295V80.75H168.169C166.784 80.75 166.148 81.3925 166.148 82.784V86.2113H168.319V85.8708C168.319 85.0084 168.772 84.5911 169.707 84.5911H173.908L166.033 95.6987V99.5747H180.765V95.6254Z" fill="#113388"/>
<path fill-rule="evenodd" clip-rule="evenodd" d="M211.452 99.086V77.8135C211.452 76.1199 210.85 75.5543 209.201 75.5543H204.253V77.9252H204.551C205.68 77.9252 205.904 78.1889 205.904 79.5437V99.086H211.452ZM213.885 99.086H219.392V82.5188C219.392 80.8636 218.763 80.2595 217.147 80.2595H213.885V99.086ZM203.466 99.086V80.2595H200.204C198.593 80.2595 197.959 80.8636 197.959 82.5188V99.086H203.466ZM224.608 88.2804C224.608 97.6561 217.889 104.472 208.676 104.472C199.459 104.472 192.745 97.6561 192.745 88.2804C192.745 78.9047 199.459 72.0868 208.676 72.0868C217.889 72.0868 224.608 78.9414 224.608 88.2804ZM227.87 88.2804C227.87 77.2478 219.655 69 208.676 69C197.695 69 189.488 77.2478 189.488 88.2804C189.488 99.313 197.695 107.556 208.676 107.556C219.655 107.556 227.87 99.313 227.87 88.2804Z" fill="#113388"/>
<path d="M83.6429 128.793V123.375H81.6895V127.997C81.6895 127.997 80.937 128.365 79.5727 128.365C76.521 128.365 74.9951 126.464 74.9951 122.537C74.9951 119.511 76.236 116.814 79.8369 116.814C82.5862 116.814 83.6429 117.998 83.6429 117.998V116.077C83.6429 116.077 82.4211 115.197 79.8178 115.197C77.051 115.197 75.1376 116.322 74.0375 118.225C73.1825 119.716 73 121.394 73 122.885C73 127.239 75.2593 129.938 79.2877 129.938C82.442 129.938 83.6429 128.793 83.6429 128.793Z" fill="#113388"/>
<path d="M88.1743 129.753V114.014L86.2609 114.297V129.753H88.1743Z" fill="#113388"/>
<path fill-rule="evenodd" clip-rule="evenodd" d="M97.306 124.5C97.306 127.098 96.5344 128.527 94.7826 128.527C92.8292 128.527 92.2592 126.749 92.2592 124.521C92.2592 121.902 93.0117 120.494 94.7826 120.494C96.736 120.494 97.306 122.274 97.306 124.5ZM99.2403 124.357C99.2403 120.881 97.5302 119.023 94.8643 119.023C91.79 119.023 90.3267 121.27 90.3267 124.665C90.3267 128.139 92.035 130 94.7009 130C97.7735 130 99.2403 127.75 99.2403 124.357Z" fill="#113388"/>
<path fill-rule="evenodd" clip-rule="evenodd" d="M108.005 124.479C108.005 127.157 107.11 128.467 105.236 128.467C103.895 128.467 103.304 127.751 103.304 127.751V122.6C103.304 121.352 104.159 120.615 105.441 120.615C107.028 120.615 108.005 121.575 108.005 124.479ZM109.958 124.234C109.958 121.226 108.676 119.025 105.989 119.025C104.037 119.025 103.304 120.392 103.304 120.392V114.014L101.39 114.297V129.919L102.998 129.079C102.998 129.079 103.853 129.919 105.5 129.919C107.638 129.919 109.958 128.816 109.958 124.234Z" fill="#113388"/>
<path fill-rule="evenodd" clip-rule="evenodd" d="M117.14 126.482C117.14 127.585 116.264 128.404 115.105 128.404C113.64 128.404 113.294 127.423 113.294 126.665C113.294 125.054 114.414 124.745 115.919 124.623L117.14 124.52V126.482ZM118.991 129.672V122.435C118.991 121.045 118.889 119.039 115.533 119.039C113.294 119.039 112.441 119.858 112.441 119.858V121.496C112.441 121.496 113.274 120.452 115.065 120.452C117.1 120.452 117.12 121.639 117.12 122.435V123.273L115.879 123.334C114.17 123.416 111.402 123.559 111.402 126.768C111.402 128.364 112.276 129.897 114.393 129.897C116.551 129.897 117.18 128.465 117.18 128.465V129.834L118.991 129.672Z" fill="#113388"/>
<path d="M123.627 129.753V114.014L121.716 114.297V129.753H123.627Z" fill="#113388"/>
<path d="M132.467 115.381H130.493V129.753H132.467V115.381Z" fill="#113388"/>
<path d="M143.472 129.753V122.947C143.472 122.088 143.453 120.739 142.476 119.838C141.967 119.368 141.213 119.022 140.114 119.022C137.918 119.022 137.144 120.493 137.144 120.493V119.185H135.273V129.753H137.184V122.621C137.184 121.168 138.448 120.637 139.404 120.637C141.54 120.637 141.581 122.169 141.581 123.375V129.753H143.472Z" fill="#113388"/>
<path d="M153.806 119.187H151.972L149.818 126.015C149.47 127.097 149.308 127.935 149.308 127.935C149.308 127.935 149.124 127.014 148.82 125.994L146.703 119.187H144.71L148.248 129.837H150.184L153.806 119.187Z" fill="#113388"/>
<path fill-rule="evenodd" clip-rule="evenodd" d="M161.048 123.334H156.447C156.447 122.498 156.693 120.371 158.848 120.371C160.72 120.371 161.048 121.902 161.048 123.334ZM162.939 124.705V124.378C162.939 122.004 162.472 119.023 158.928 119.023C155.878 119.023 154.495 121.332 154.495 124.581C154.495 129.12 157.036 129.939 159.132 129.939C161.471 129.939 162.35 129.162 162.35 129.162L162.472 127.444C162.472 127.444 161.514 128.486 159.623 128.486C156.975 128.486 156.408 126.873 156.408 124.705H162.939Z" fill="#113388"/>
<path d="M170.911 126.851C170.911 125.214 169.932 124.499 168.857 123.948L167.692 123.356C166.82 122.905 166.31 122.657 166.31 121.72C166.31 121.31 166.474 120.451 167.958 120.451C169.546 120.451 170.48 121.474 170.48 121.474V119.794C170.48 119.794 169.63 119.022 167.878 119.022C166.599 119.022 164.538 119.368 164.538 121.884C164.538 123.599 165.659 124.293 166.637 124.826L167.777 125.461C168.813 126.032 169.115 126.319 169.115 127.117C169.115 128.138 168.304 128.485 167.226 128.485C165.271 128.485 164.274 127.361 164.274 127.361L164.376 129.1C164.376 129.1 165.296 129.917 167.289 129.917C168.813 129.917 170.911 129.425 170.911 126.851Z" fill="#113388"/>
<path d="M177.646 128.036C177.646 128.036 177.28 128.444 176.364 128.444C175.855 128.444 175.53 128.24 175.328 127.935C175.165 127.669 175.104 127.259 175.104 126.709V120.616H177.603V119.207H175.104V116.874L173.213 117.323V119.207H172.109V120.616H173.213V126.526C173.213 127.608 173.251 128.343 173.679 128.937C174.207 129.714 174.982 129.897 175.877 129.897C177.014 129.897 177.563 129.548 177.563 129.548L177.646 128.036Z" fill="#113388"/>
<path fill-rule="evenodd" clip-rule="evenodd" d="M185.735 124.5C185.735 127.098 184.964 128.527 183.217 128.527C181.258 128.527 180.688 126.749 180.688 124.521C180.688 121.902 181.443 120.494 183.217 120.494C185.167 120.494 185.735 122.274 185.735 124.5ZM187.67 124.357C187.67 120.881 185.958 119.023 183.294 119.023C180.223 119.023 178.756 121.27 178.756 124.665C178.756 128.139 180.466 130 183.132 130C186.203 130 187.67 127.75 187.67 124.357Z" fill="#113388"/>
<path d="M195.396 119.39C195.396 119.39 194.93 119.023 194.011 119.023C192.285 119.023 191.674 120.679 191.674 120.679V119.186H189.821V129.754H191.734V123.006C191.734 121.903 192.245 120.637 193.709 120.637C194.764 120.637 195.212 121.105 195.212 121.105L195.396 119.39Z" fill="#113388"/>
<path d="M202.68 126.851C202.68 125.214 201.701 124.499 200.622 123.948L199.464 123.356C198.589 122.905 198.081 122.657 198.081 121.72C198.081 121.31 198.241 120.451 199.729 120.451C201.317 120.451 202.254 121.474 202.254 121.474V119.794C202.254 119.794 201.395 119.022 199.647 119.022C198.364 119.022 196.31 119.368 196.31 121.884C196.31 123.599 197.429 124.293 198.404 124.826L199.544 125.461C200.584 126.032 200.89 126.319 200.89 127.117C200.89 128.138 200.076 128.485 198.995 128.485C197.042 128.485 196.044 127.361 196.044 127.361L196.145 129.1C196.145 129.1 197.063 129.917 199.056 129.917C200.584 129.917 202.68 129.425 202.68 126.851Z" fill="#113388"/>
</svg>
