<svg width="300" height="200" viewBox="0 0 300 200" fill="none" xmlns="http://www.w3.org/2000/svg">
<path fill-rule="evenodd" clip-rule="evenodd" d="M93.7253 118.773V125.884C93.7253 126.699 93.8563 126.888 94.4436 127.044C94.9993 127.201 97.1557 127.452 99.6044 127.452C102.708 127.452 104.636 127.138 106.138 126.543C108.262 125.634 109.829 123.91 109.829 121.308C109.829 120.434 109.654 119.567 109.279 118.775L104.728 118.773C105.076 119.35 105.289 120.086 105.289 121.026C105.289 123.753 103.198 124.881 100.193 124.881C99.3108 124.881 98.5593 124.819 98.0698 124.756V118.773H93.7253Z" fill="#231F20"/>
<path fill-rule="evenodd" clip-rule="evenodd" d="M98.0698 118.774V116.763C98.5276 116.733 98.8543 116.701 99.4417 116.701C100.489 116.701 103.479 116.701 104.728 118.774H109.279C108.594 117.324 107.237 116.12 105.06 115.572C104.831 115.51 104.603 115.478 104.342 115.415C104.603 115.321 104.831 115.227 105.093 115.133C106.334 114.538 108.589 113.128 108.589 110.275C108.589 108.614 107.837 107.078 106.105 106.075C104.407 105.071 102.023 104.853 99.6058 104.853C97.71 104.853 95.162 105.04 94.3788 105.29C93.8563 105.478 93.7253 105.698 93.7253 106.357V118.774H98.0698ZM98.0698 107.423C98.7882 107.328 99.1811 107.297 99.8333 107.297C100.585 107.297 104.211 107.297 104.211 110.901C104.211 111.654 103.949 114.193 100.356 114.57C99.5727 114.632 98.9192 114.632 98.0698 114.6V107.423Z" fill="#231F20"/>
<path fill-rule="evenodd" clip-rule="evenodd" d="M126.809 126.67C127.038 127.203 127.169 127.235 127.724 127.235H131.023C131.252 127.235 131.579 127.203 131.579 126.828C131.579 126.702 131.546 126.576 131.448 126.388L123.477 105.574C123.281 105.167 123.183 105.104 122.694 105.104H120.799C120.277 105.104 120.179 105.261 120.015 105.7L112.045 126.231C112.012 126.294 111.848 126.764 111.848 126.828C111.848 127.235 112.241 127.235 112.469 127.235H114.625C115.181 127.235 115.279 127.14 115.474 126.638L117.794 120.307H124.424L126.809 126.67ZM118.61 117.956L121.093 110.715L123.608 117.956H118.61Z" fill="#231F20"/>
<path fill-rule="evenodd" clip-rule="evenodd" d="M134.448 126.105C134.481 126.732 134.611 126.951 135.102 127.076C136.016 127.391 138.466 127.483 139.805 127.483C143.562 127.483 147.449 126.638 150.095 124.067C151.009 123.158 153.198 120.714 153.198 116.168C153.198 111.278 150.781 108.708 149.605 107.705C146.501 105.009 142.484 104.852 140.556 104.852C138.433 104.852 135.853 105.135 135.004 105.448C134.71 105.542 134.448 105.668 134.448 106.387V126.105ZM138.891 107.579C139.315 107.548 139.707 107.486 140.327 107.486C142.844 107.486 145.294 108.394 146.795 110.306C147.318 111.027 148.494 112.72 148.494 116.042C148.494 118.832 147.711 120.682 146.861 121.779C145.325 123.754 142.713 124.694 139.903 124.694C139.642 124.694 139.348 124.694 138.891 124.663V107.579Z" fill="#231F20"/>
<path d="M168.457 117.109C168.98 117.109 169.175 117.047 169.175 116.482V114.946C169.175 114.413 168.98 114.35 168.49 114.35H161.956V107.893H169.698C170.254 107.893 170.482 107.831 170.449 107.204V105.668C170.482 105.071 170.156 105.071 169.698 105.071H158.331C157.743 105.103 157.547 105.26 157.547 105.95V126.512C157.547 127.171 157.776 127.233 158.331 127.233H169.698C170.254 127.233 170.385 127.139 170.449 126.826V125.008C170.449 124.413 170.189 124.381 169.698 124.381H161.956V117.109H168.457Z" fill="#231F20"/>
<path d="M179.754 105.668C179.394 105.167 179.264 105.103 178.709 105.103H176.225C175.769 105.103 175.507 105.167 175.507 105.762V126.608C175.507 127.171 175.703 127.235 176.225 127.235H178.284C178.84 127.235 178.937 127.046 178.937 126.544V111.373L190.175 126.576C190.533 127.077 190.631 127.171 191.023 127.235H192.852C193.343 127.235 193.539 127.14 193.539 126.608V105.73C193.539 105.229 193.408 105.073 192.885 105.103H190.827C190.304 105.103 190.175 105.261 190.175 105.73V119.679L179.754 105.668Z" fill="#231F20"/>
<path d="M204.126 105.762C204.126 105.197 203.931 105.104 203.441 105.104H200.337C199.749 105.104 199.684 105.323 199.651 105.762V126.544C199.651 127.109 199.913 127.203 200.37 127.234H203.408C203.833 127.234 204.126 127.14 204.126 126.544V105.762Z" fill="#231F20"/>
<path fill-rule="evenodd" clip-rule="evenodd" d="M221.899 126.67C222.128 127.203 222.259 127.235 222.813 127.235H226.112C226.341 127.235 226.668 127.203 226.668 126.828C226.668 126.702 226.635 126.576 226.537 126.388L218.568 105.574C218.37 105.167 218.273 105.104 217.783 105.104H215.889C215.366 105.104 215.268 105.261 215.104 105.7L207.135 126.231C207.102 126.294 206.939 126.764 206.939 126.828C206.939 127.235 207.33 127.235 207.559 127.235H209.714C210.27 127.235 210.368 127.14 210.564 126.638L212.883 120.307H219.515L221.899 126.67ZM213.7 117.956L216.182 110.715L218.697 117.956H213.7Z" fill="#231F20"/>
<path fill-rule="evenodd" clip-rule="evenodd" d="M93.6802 95.9675C93.6802 96.105 93.7067 96.2056 93.8866 96.2559C94.2491 96.3445 95.1685 96.3815 95.621 96.3815C97.0577 96.3815 98.5196 96.0931 99.5938 95.1631C100.098 94.7239 100.991 93.6933 100.991 91.8729C100.991 89.825 99.7221 87.3379 95.9319 87.3379C95.1553 87.3379 94.1975 87.4384 93.8747 87.5509C93.7318 87.5893 93.6802 87.6395 93.6802 87.9028V95.9675ZM94.9608 88.1661C95.1937 88.129 95.4014 88.1039 95.7758 88.1039C96.9797 88.1039 97.9891 88.4055 98.7127 89.1966C99.3729 89.9123 99.6189 90.8794 99.6189 91.8346C99.6189 94.0836 98.3899 95.5904 95.6342 95.5904C95.3366 95.5904 95.1289 95.5785 94.9608 95.5534V88.1661Z" fill="#231F20"/>
<path fill-rule="evenodd" clip-rule="evenodd" d="M107.398 92.2737C107.553 92.2486 107.774 92.2234 107.774 91.8715C107.774 91.3569 107.333 89.6357 105.289 89.6357C103.698 89.6357 103.037 90.7669 102.896 91.0301C102.637 91.4945 102.455 92.148 102.455 93.0529C102.455 93.6429 102.533 94.3587 102.869 94.9871C103.452 96.1433 104.499 96.4436 105.276 96.4436C107.295 96.4436 107.864 94.573 107.864 94.2462C107.864 93.9816 107.682 93.9446 107.604 93.9446C107.449 93.9446 107.411 94.0068 107.23 94.3084C106.803 94.9871 106.22 95.4144 105.444 95.4144C104.461 95.4144 103.543 94.5981 103.438 92.8386L107.398 92.2737ZM103.438 92.2234C103.568 91.1307 104.098 90.3515 105.146 90.3515C105.884 90.3515 106.453 90.9547 106.531 91.7591L103.438 92.2234Z" fill="#231F20"/>
<path d="M114.732 90.0243C114.719 89.8364 114.654 89.7861 114.448 89.7861C114.202 89.7861 113.774 89.7861 113.736 89.798C113.593 89.8232 113.581 89.9237 113.581 90.0494V94.345C113.581 94.9483 113.581 95.6891 112.248 95.6891C110.824 95.6891 110.812 94.7855 110.799 94.1942V90.0243C110.799 89.8113 110.721 89.7861 110.54 89.7861H109.868C109.673 89.7861 109.635 89.8483 109.635 90.011V94.4588C109.635 95.0872 109.751 95.5634 110.229 95.9537C110.54 96.1918 111.019 96.4432 112.067 96.4432C113.27 96.4432 113.995 96.1045 114.189 96.004C114.681 95.7142 114.719 95.3637 114.732 94.7353V90.0243Z" fill="#231F20"/>
<path d="M119.367 90.3393C119.561 90.3393 119.561 90.3009 119.561 89.9622C119.561 89.7995 119.509 89.7863 119.353 89.7863H118.227V88.2543C118.227 88.1035 118.216 87.9395 118.086 87.9395C118.046 87.9395 117.995 87.9646 117.865 88.0784L117.271 88.593C117.115 88.7438 117.077 88.8073 117.077 89.0322V89.7863H116.391C116.197 89.7995 116.197 89.8246 116.197 90.1514C116.197 90.326 116.222 90.3393 116.391 90.3393H117.077V94.6481C117.077 95.037 117.09 95.4525 117.387 95.8414C117.659 96.1801 118.124 96.4195 118.745 96.4195C119.042 96.4195 119.754 96.3309 119.754 96.0041C119.754 95.9287 119.729 95.7528 119.496 95.7528C119.445 95.7528 119.212 95.766 119.159 95.766C118.771 95.766 118.525 95.59 118.384 95.3268C118.241 95.0873 118.241 94.9497 118.227 94.4219V90.3393H119.367Z" fill="#231F20"/>
<path d="M122.977 92.3742C122.511 92.1731 121.891 91.8967 121.891 91.1928C121.891 90.829 122.162 90.276 122.86 90.276C123.481 90.276 123.715 90.7166 123.857 90.9547C123.973 91.169 124.089 91.382 124.425 91.382C124.685 91.382 124.904 91.2061 124.904 90.9044C124.904 90.5023 124.362 89.6357 122.887 89.6357C121.477 89.6357 120.828 90.4904 120.828 91.382C120.828 92.537 121.721 92.9524 122.782 93.4419C123.353 93.7051 124.025 94.0068 124.025 94.7727C124.025 95.2384 123.715 95.7279 123.028 95.7279C122.368 95.7279 122.097 95.376 121.916 95.0995C121.838 94.9619 121.786 94.8746 121.748 94.8111C121.67 94.6986 121.515 94.4843 121.231 94.4843C120.971 94.4843 120.7 94.6735 120.7 95.0254C120.7 95.3892 121.204 96.4436 122.938 96.4436C123.261 96.4436 123.96 96.4185 124.504 95.9541C124.892 95.6155 125.112 95.0876 125.112 94.5597C125.112 93.3797 124.206 92.9524 123.534 92.6256L122.977 92.3742Z" fill="#231F20"/>
<path d="M130.638 91.382C130.741 91.5831 130.922 91.7591 131.182 91.7591C131.375 91.7591 131.712 91.6334 131.712 91.2312C131.712 90.7417 130.987 89.6357 129.499 89.6357C127.65 89.6357 126.614 91.0936 126.614 93.1032C126.614 94.999 127.623 96.4449 129.344 96.4449C131.13 96.4449 131.789 94.9249 131.789 94.3838C131.789 94.1073 131.569 94.0822 131.518 94.0822C131.363 94.0822 131.311 94.1708 131.142 94.4341C130.936 94.7608 130.508 95.4395 129.604 95.4395C128.632 95.4395 127.661 94.5478 127.661 92.701C127.661 91.2061 128.451 90.3515 129.344 90.3515C130.108 90.3515 130.367 90.8674 130.638 91.382Z" fill="#231F20"/>
<path d="M137.52 96.0411C137.52 96.2793 137.572 96.2793 137.791 96.2925H138.438C138.671 96.2925 138.684 96.2171 138.684 95.9909V91.8209C138.671 91.305 138.646 89.6341 136.627 89.6341C135.463 89.6341 134.867 90.2122 134.635 90.4266V86.9088C134.635 86.721 134.583 86.6826 134.389 86.6826H133.703C133.522 86.6958 133.47 86.758 133.47 86.9088V96.0279C133.47 96.2171 133.509 96.2925 133.703 96.2925H134.389C134.596 96.2925 134.635 96.2171 134.635 95.9909V91.129C135.074 90.7401 135.604 90.4266 136.2 90.4266C136.705 90.4266 137.144 90.6779 137.352 91.0669C137.52 91.3685 137.52 91.7072 137.52 91.9704V96.0411Z" fill="#231F20"/>
<path fill-rule="evenodd" clip-rule="evenodd" d="M145.389 92.2737C145.544 92.2486 145.765 92.2234 145.765 91.8715C145.765 91.3569 145.324 89.6357 143.28 89.6357C141.689 89.6357 141.028 90.7669 140.886 91.0301C140.628 91.4945 140.446 92.148 140.446 93.0529C140.446 93.6429 140.524 94.3587 140.86 94.9871C141.443 96.1433 142.49 96.4436 143.267 96.4436C145.286 96.4436 145.855 94.573 145.855 94.2462C145.855 93.9816 145.673 93.9446 145.595 93.9446C145.44 93.9446 145.402 94.0068 145.221 94.3084C144.794 94.9871 144.211 95.4144 143.435 95.4144C142.452 95.4144 141.533 94.5981 141.429 92.8386L145.389 92.2737ZM141.429 92.2234C141.559 91.1307 142.089 90.3515 143.137 90.3515C143.875 90.3515 144.444 90.9547 144.522 91.7591L141.429 92.2234Z" fill="#231F20"/>
<path fill-rule="evenodd" clip-rule="evenodd" d="M150.834 95.7913C150.834 96.0929 150.861 96.1551 151.041 96.2054C151.261 96.2808 152.076 96.3694 152.956 96.3694C153.914 96.3694 156.954 96.3694 156.954 93.9445C156.954 92.8266 156.281 91.923 154.948 91.6082C154.845 91.583 154.754 91.5711 154.651 91.546C154.754 91.5076 154.859 91.4706 154.948 91.4203C155.57 91.1306 156.359 90.5154 156.359 89.4729C156.359 88.8445 156.074 88.2413 155.427 87.8404C154.729 87.425 153.746 87.3496 153.008 87.3496C152.412 87.3496 151.338 87.4131 151.041 87.5137C150.873 87.5639 150.834 87.6393 150.834 87.8523V95.7913ZM152.09 88.1407C152.361 88.1037 152.658 88.0786 153.008 88.0786C153.422 88.0786 155.052 88.0786 155.052 89.6992C155.052 90.1384 154.845 91.1809 153.176 91.3065C152.801 91.3317 152.49 91.3317 152.09 91.3198V88.1407ZM152.09 91.9852C152.399 91.972 152.58 91.9601 152.93 91.9601C153.655 91.9601 154.548 91.9984 155.143 92.6506C155.337 92.8517 155.609 93.2539 155.609 93.9074C155.609 95.151 154.548 95.6286 153.163 95.6286C152.697 95.6286 152.336 95.5902 152.09 95.5651V91.9852Z" fill="#231F20"/>
<path fill-rule="evenodd" clip-rule="evenodd" d="M163.099 91.6453C163.086 90.9799 163.073 89.6357 161.172 89.6357C159.786 89.6357 158.817 90.3766 158.817 91.1307C158.817 91.5328 159.153 91.6585 159.334 91.6585C159.722 91.6585 159.826 91.3569 159.916 91.1174C160.019 90.8661 160.252 90.3012 161.004 90.3012C161.973 90.3012 161.973 91.1558 161.973 91.6453V92.2856C159.903 92.877 158.454 93.291 158.454 94.7357C158.454 96.4436 160.369 96.4436 160.718 96.4436C161.275 96.4436 162.051 96.3563 162.542 96.1049C163.021 95.8536 163.086 95.54 163.099 94.9738V91.6453ZM161.973 94.8481C161.973 95.1881 161.96 95.7663 160.951 95.7663C159.632 95.7663 159.632 94.6722 159.632 94.5716C159.632 93.6046 160.563 93.3162 161.973 92.877V94.8481Z" fill="#231F20"/>
<path d="M170.251 90.0243C170.238 89.8364 170.173 89.7861 169.967 89.7861C169.72 89.7861 169.293 89.7861 169.255 89.798C169.112 89.8232 169.1 89.9237 169.1 90.0494V94.345C169.1 94.9483 169.1 95.6891 167.766 95.6891C166.343 95.6891 166.331 94.7855 166.318 94.1942V90.0243C166.318 89.8113 166.24 89.7861 166.059 89.7861H165.386C165.192 89.7861 165.154 89.8483 165.154 90.011V94.4588C165.154 95.0872 165.27 95.5634 165.748 95.9537C166.059 96.1918 166.537 96.4432 167.585 96.4432C168.789 96.4432 169.513 96.1045 169.707 96.004C170.199 95.7142 170.238 95.3637 170.251 94.7353V90.0243Z" fill="#231F20"/>
<path d="M174.277 92.3742C173.811 92.1731 173.189 91.8967 173.189 91.1928C173.189 90.829 173.462 90.276 174.16 90.276C174.782 90.276 175.014 90.7166 175.156 90.9547C175.273 91.169 175.389 91.382 175.725 91.382C175.985 91.382 176.204 91.2061 176.204 90.9044C176.204 90.5023 175.662 89.6357 174.187 89.6357C172.777 89.6357 172.13 90.4904 172.13 91.382C172.13 92.537 173.021 92.9524 174.082 93.4419C174.652 93.7051 175.324 94.0068 175.324 94.7727C175.324 95.2384 175.014 95.7279 174.328 95.7279C173.668 95.7279 173.397 95.376 173.216 95.0995C173.138 94.9619 173.086 94.8746 173.048 94.8111C172.97 94.6986 172.815 94.4843 172.53 94.4843C172.271 94.4843 172 94.6735 172 95.0254C172 95.3892 172.504 96.4436 174.238 96.4436C174.561 96.4436 175.26 96.4185 175.803 95.9541C176.192 95.6155 176.412 95.0876 176.412 94.5597C176.412 93.3797 175.506 92.9524 174.834 92.6256L174.277 92.3742Z" fill="#231F20"/>
<path fill-rule="evenodd" clip-rule="evenodd" d="M178.264 99.0062C178.264 99.2072 178.354 99.2443 178.548 99.2443H179.195C179.377 99.2443 179.415 99.157 179.415 99.0194V95.9912C179.661 96.1552 180.062 96.4317 180.813 96.4317C182.922 96.4317 183.827 94.3203 183.827 92.738C183.827 91.3939 183.207 89.6357 180.813 89.6357C179.701 89.6357 178.691 90.0366 178.419 90.4388C178.277 90.6531 178.277 90.8542 178.264 91.4191V99.0062ZM179.415 91.4561C179.415 90.9918 179.415 90.3263 180.541 90.3263C181.886 90.3263 182.638 91.4442 182.638 92.951C182.638 94.7106 181.758 95.6776 180.709 95.6776C180.243 95.6776 179.804 95.4884 179.415 95.2622V91.4561Z" fill="#231F20"/>
<path fill-rule="evenodd" clip-rule="evenodd" d="M189.82 91.6453C189.807 90.9799 189.793 89.6357 187.892 89.6357C186.507 89.6357 185.538 90.3766 185.538 91.1307C185.538 91.5328 185.874 91.6585 186.055 91.6585C186.442 91.6585 186.547 91.3569 186.637 91.1174C186.74 90.8661 186.973 90.3012 187.724 90.3012C188.694 90.3012 188.694 91.1558 188.694 91.6453V92.2856C186.624 92.877 185.175 93.291 185.175 94.7357C185.175 96.4436 187.089 96.4436 187.439 96.4436C187.996 96.4436 188.772 96.3563 189.263 96.1049C189.742 95.8536 189.807 95.54 189.82 94.9738V91.6453ZM188.694 94.8481C188.694 95.1881 188.681 95.7663 187.673 95.7663C186.353 95.7663 186.353 94.6722 186.353 94.5716C186.353 93.6046 187.284 93.3162 188.694 92.877V94.8481Z" fill="#231F20"/>
<path d="M192.988 91.1307C193.002 90.8039 193.015 90.2509 193.778 90.2509C194.153 90.2509 194.321 90.4017 194.49 90.5658C194.71 90.8039 194.8 90.9044 195.032 90.9044C195.356 90.9044 195.563 90.6531 195.563 90.3647C195.563 89.7733 194.864 89.6357 194.231 89.6357C193.389 89.6357 192.561 89.8501 192.173 90.075C191.889 90.239 191.837 90.3898 191.837 90.829V96.0798C191.837 96.2809 191.914 96.2941 192.095 96.2941H192.756C192.91 96.2941 192.975 96.2809 192.988 96.0798V91.1307Z" fill="#231F20"/>
<path d="M201.615 90.1501C201.705 90.0495 201.758 89.9992 201.758 89.9238C201.758 89.7862 201.732 89.7862 200.982 89.7862C200.749 89.7862 200.722 89.8114 200.528 90.0125L197.993 92.7126V86.8586C197.993 86.6826 197.902 86.6826 197.747 86.6826H197.06C196.919 86.6826 196.841 86.7078 196.841 86.8837V96.0914C196.841 96.2673 196.879 96.2925 197.06 96.2925H197.747C197.928 96.2925 197.993 96.2925 197.993 96.1046V92.9005L200.658 96.1046C200.814 96.2806 200.839 96.2925 201.046 96.2925H201.926C201.965 96.2925 202.094 96.2925 202.094 96.1668C202.094 96.1046 202.055 96.0544 201.991 95.9657L199.247 92.7126L201.615 90.1501Z" fill="#231F20"/>
<path fill-rule="evenodd" clip-rule="evenodd" d="M207.849 91.6453C207.836 90.9799 207.824 89.6357 205.922 89.6357C204.536 89.6357 203.567 90.3766 203.567 91.1307C203.567 91.5328 203.903 91.6585 204.084 91.6585C204.472 91.6585 204.576 91.3569 204.666 91.1174C204.769 90.8661 205.002 90.3012 205.754 90.3012C206.723 90.3012 206.723 91.1558 206.723 91.6453V92.2856C204.653 92.877 203.204 93.291 203.204 94.7357C203.204 96.4436 205.118 96.4436 205.469 96.4436C206.025 96.4436 206.801 96.3563 207.292 96.1049C207.771 95.8536 207.836 95.54 207.849 94.9738V91.6453ZM206.723 94.8481C206.723 95.1881 206.71 95.7663 205.702 95.7663C204.382 95.7663 204.382 94.6722 204.382 94.5716C204.382 93.6046 205.313 93.3162 206.723 92.877V94.8481Z" fill="#231F20"/>
<path d="M211.975 92.3742C211.51 92.1731 210.888 91.8967 210.888 91.1928C210.888 90.829 211.16 90.276 211.859 90.276C212.479 90.276 212.712 90.7166 212.855 90.9547C212.971 91.169 213.088 91.382 213.424 91.382C213.683 91.382 213.903 91.2061 213.903 90.9044C213.903 90.5023 213.359 89.6357 211.884 89.6357C210.474 89.6357 209.827 90.4904 209.827 91.382C209.827 92.537 210.72 92.9524 211.781 93.4419C212.351 93.7051 213.023 94.0068 213.023 94.7727C213.023 95.2384 212.712 95.7279 212.027 95.7279C211.367 95.7279 211.096 95.376 210.914 95.0995C210.836 94.9619 210.785 94.8746 210.746 94.8111C210.668 94.6986 210.513 94.4843 210.229 94.4843C209.97 94.4843 209.698 94.6735 209.698 95.0254C209.698 95.3892 210.203 96.4436 211.937 96.4436C212.26 96.4436 212.958 96.4185 213.502 95.9541C213.89 95.6155 214.111 95.0876 214.111 94.5597C214.111 93.3797 213.204 92.9524 212.531 92.6256L211.975 92.3742Z" fill="#231F20"/>
<path d="M217.954 92.3742C217.488 92.1731 216.868 91.8967 216.868 91.1928C216.868 90.829 217.139 90.276 217.837 90.276C218.459 90.276 218.691 90.7166 218.833 90.9547C218.95 91.169 219.066 91.382 219.402 91.382C219.662 91.382 219.881 91.2061 219.881 90.9044C219.881 90.5023 219.339 89.6357 217.864 89.6357C216.453 89.6357 215.807 90.4904 215.807 91.382C215.807 92.537 216.698 92.9524 217.759 93.4419C218.329 93.7051 219.002 94.0068 219.002 94.7727C219.002 95.2384 218.691 95.7279 218.005 95.7279C217.345 95.7279 217.074 95.376 216.893 95.0995C216.815 94.9619 216.763 94.8746 216.725 94.8111C216.647 94.6986 216.492 94.4843 216.207 94.4843C215.948 94.4843 215.677 94.6735 215.677 95.0254C215.677 95.3892 216.181 96.4436 217.915 96.4436C218.238 96.4436 218.937 96.4185 219.48 95.9541C219.869 95.6155 220.089 95.0876 220.089 94.5597C220.089 93.3797 219.183 92.9524 218.511 92.6256L217.954 92.3742Z" fill="#231F20"/>
<path fill-rule="evenodd" clip-rule="evenodd" d="M226.534 92.2737C226.689 92.2486 226.91 92.2234 226.91 91.8715C226.91 91.3569 226.469 89.6357 224.426 89.6357C222.834 89.6357 222.174 90.7669 222.031 91.0301C221.773 91.4945 221.592 92.148 221.592 93.0529C221.592 93.6429 221.67 94.3587 222.006 94.9871C222.588 96.1433 223.636 96.4436 224.412 96.4436C226.431 96.4436 227 94.573 227 94.2462C227 93.9816 226.819 93.9446 226.741 93.9446C226.586 93.9446 226.548 94.0068 226.366 94.3084C225.939 94.9871 225.357 95.4144 224.58 95.4144C223.597 95.4144 222.678 94.5981 222.575 92.8386L226.534 92.2737ZM222.575 92.2234C222.704 91.1307 223.235 90.3515 224.283 90.3515C225.021 90.3515 225.59 90.9547 225.668 91.7591L222.575 92.2234Z" fill="#231F20"/>
<path d="M73 73.5915L98.7405 63L124.181 73.5915V79.7617L98.7405 70.4389L73 79.7617V73.5915Z" fill="#CB0000" stroke="#CB0000" stroke-width="2.24548" stroke-miterlimit="3.864"/>
</svg>
