<svg width="300" height="200" viewBox="0 0 300 200" fill="none" xmlns="http://www.w3.org/2000/svg">
<path d="M105.686 102.651C108.176 102.845 112.241 101.655 112.241 98.4191C112.241 96.0405 110.72 94.6022 108.646 94.1873V94.132C110.278 93.5788 111.522 92.3342 111.522 90.564C111.522 87.3832 108.535 86.1662 105.631 86.3322H99.5183V102.623M103.003 92.8873V89.0428H105.742C107.207 89.0428 108.01 89.6513 108.01 90.9512C108.01 92.2512 107.207 92.8597 105.742 92.8597H103.003V92.8873ZM103.003 99.9404V95.5979H105.742C107.401 95.5979 108.507 95.8745 108.507 97.7553C108.507 99.6361 107.373 99.9127 105.742 99.9127H103.003V99.9404ZM118.05 93.3852H118.105L123.499 86.3599H127.592L121.618 93.6341L128.118 102.651H123.747L118.077 94.3533H118.022V102.651H114.537V86.3599H118.022M133.096 93.3852H133.151L138.573 86.3322H142.666L136.664 93.6341L143.164 102.651H138.822L133.151 94.3533H133.096V102.651H129.583V86.3599H133.069M150.964 102.651V86.3599H154.449V99.9404H161.502V102.651M163.272 86.3599V89.264H166.895V86.3599M163.383 102.651H166.757V91.3108H163.383V102.651ZM173.063 92.6384L173.119 92.6937C173.81 91.6427 174.889 90.9789 176.604 90.9789C177.738 90.9789 179.923 91.8087 180.338 93.4682C180.531 94.1597 180.559 94.8788 180.559 95.266V102.651H177.184V95.8468C177.157 94.6299 176.825 93.2469 175.165 93.2469C174.114 93.2469 173.174 94.1873 173.146 95.8468V102.651H169.772V91.3108H173.119M191.29 92.6384H191.235C190.599 91.698 189.382 90.9789 188.22 90.9789C184.708 90.9789 182.91 93.9384 182.91 96.9809C182.91 99.885 184.459 102.983 187.778 102.983C189.244 102.983 190.516 102.374 191.263 101.047H191.318C191.318 101.6 191.373 102.098 191.401 102.651H194.775C194.72 101.904 194.665 101.13 194.665 100.383V86.3599H191.29M186.422 96.9809C186.422 95.2383 186.699 93.2469 188.856 93.2469C190.682 93.2469 191.29 95.432 191.29 96.9809C191.29 98.5298 190.682 100.715 188.856 100.715C186.671 100.715 186.422 98.7234 186.422 96.9809ZM200.252 95.6256C200.307 94.3809 200.639 93.2469 202.188 93.2469C203.848 93.2469 204.179 94.4086 204.179 95.6256M207.664 97.8936C207.664 97.1468 207.664 96.4277 207.581 95.7362C207.499 95.0171 207.333 94.3256 207.028 93.7171C206.088 91.7257 204.318 91.0065 202.188 91.0065C198.731 91.0065 196.739 93.6341 196.739 97.0362C196.739 100.825 198.288 103.01 202.188 103.01C204.816 103.01 207.028 102.098 207.305 99.2765H204.262C203.958 100.328 203.35 100.742 202.188 100.742C200.446 100.742 200.252 99.3595 200.252 97.8936H207.664Z" fill="#0071B2"/>
<path d="M100.32 120.85C100.016 120.795 99.7396 120.739 99.5736 120.739C100.016 120.822 100.237 120.85 100.32 120.85Z" fill="#F1CB13"/>
<path d="M151.324 121.348C151.296 121.376 151.296 121.403 151.296 121.431C151.351 121.403 151.379 121.376 151.324 121.348Z" fill="#F1CB13"/>
<path d="M112.075 76.6787L111.688 76.734C111.605 76.7617 111.992 76.7064 112.075 76.6787Z" fill="#F1CB13"/>
<path d="M143.109 75.1575L143.468 75.1299C143.33 75.1299 143.219 75.1299 143.109 75.1575Z" fill="#F1CB13"/>
<path d="M161.723 126.548C161.917 126.52 162 126.465 162.055 126.438C161.861 126.465 161.695 126.493 161.723 126.548Z" fill="#F1CB13"/>
<path d="M161.861 125.773C159.261 126.077 162.442 126.188 162.055 126.437C162.746 126.354 164.24 126.326 163.521 126.188C164.932 126.603 167.642 125.718 169.163 125.967C169.219 125.911 168.361 125.828 169.385 125.635C170.906 125.469 170.823 125.69 171.459 125.745C171.902 125.58 174.225 125.275 174.004 125.358C174.999 125.137 172.87 124.999 174.28 124.667C175.193 124.252 176.548 124.39 177.655 124.197C179.038 124.28 176.327 124.501 175.774 124.667L179.618 124.086C180.78 124.114 179.148 124.473 178.014 124.556C179.563 124.584 181.527 124.169 181.942 123.837C182.91 123.782 183.408 123.643 184.32 123.616C183.435 123.892 183.574 124.335 182.163 124.611C179.84 124.888 182.965 124.141 180.974 124.335L180.835 124.639C179.978 124.584 179.314 124.86 178.401 124.999C177.876 124.999 178.512 124.888 178.844 124.805C177.184 124.999 175.884 124.999 174.667 125.414C176.908 125.469 180.227 124.75 181.223 124.916C182.689 124.611 184.127 124.28 185.593 123.948C185.565 123.809 184.016 123.837 185.233 123.477C185.786 123.726 187.114 123.671 188.829 123.45C188.137 123.201 191.484 122.675 190.571 122.537C189.825 122.841 189.354 122.62 189.244 122.62C190.876 122.316 189.41 122.26 190.295 122.094C193.282 121.624 190.212 122.343 193.171 121.929C192.59 122.205 191.069 122.841 189.465 123.284C189.603 123.422 191.097 122.98 191.816 123.035C190.82 123.035 192.424 122.592 191.622 122.648C193.973 122.067 196.629 121.154 199.45 120.407C199.146 121.043 194.748 121.873 195.771 122.288C197.154 121.901 197.099 121.652 198.233 121.458C199.256 121.569 201.552 120.739 203.433 120.214L202.548 120.269C203.239 119.965 204.594 119.688 205.424 119.495L205.231 119.633L206.033 119.301C206.171 119.273 206.199 119.273 206.199 119.301C207.056 118.886 209.407 118.333 211.094 117.641C211.011 117.392 209.407 118.222 208.55 118.444C208.301 118.471 206.669 118.831 207.388 118.444C209.518 117.78 210.901 117.005 213.279 116.12L212.505 116.341C213.196 115.899 214.247 115.595 215.354 115.124C217.456 114.433 213.998 116.065 215.298 115.705C214.579 116.258 213.086 116.535 212.975 116.922L214.413 116.756C215.409 116.12 216.737 115.927 217.483 115.539L216.598 115.761C216.654 115.429 217.483 115.29 217.871 115.152L217.151 115.014C215.962 115.456 215.271 116.12 214.33 116.258C216.377 115.29 215.769 115.207 218.258 114.073C218.424 114.156 217.815 114.35 217.594 114.571C218.479 114.267 219.254 113.576 220.637 112.967C219.917 113.465 218.728 114.239 219.807 113.935L220.388 113.299C221.024 113.022 220.83 113.244 221.107 113.133C222.019 112.69 220.747 112.967 222.185 112.248C222.434 112.193 222.905 111.971 222.739 112.137C224.315 111.169 223.458 111.612 224.813 110.505C223.513 111.363 223.236 111.003 224.509 110.091C226.39 108.846 227.385 107.629 228.741 106.716C228.934 106.412 229.1 106.108 229.294 105.803C229.1 106.523 230.317 104.697 230.732 104.033C230.926 104.006 230.483 104.808 229.902 105.554C229.349 106.329 228.741 107.02 228.906 107.214C230.013 106.08 229.681 106.689 229.432 107.159C230.538 105.803 229.57 106.44 229.902 105.72C229.958 105.748 230.428 105.195 230.76 104.669C231.119 104.172 231.396 103.729 231.257 104.255C232.032 102.899 231.811 102.484 232.198 101.406C232.281 101.599 232.364 101.848 232.557 101.793C232.53 101.627 233 100.133 233 99.8014C232.889 100.078 232.834 99.1929 232.696 100.631C232.613 100.438 232.751 99.6078 232.751 98.8057C232.751 98.0036 232.64 97.2845 232.557 97.3398C232.696 97.2568 232.585 96.4824 232.309 95.5973C232.032 94.7122 231.534 93.7718 231.23 93.1357C230.981 93.3569 231.368 93.8824 231.728 94.4909C232.087 95.0994 232.419 95.8186 232.198 96.1228C231.838 95.2101 231.23 93.7441 230.262 92.4165C229.294 91.0889 228.049 89.8719 226.943 89.1251C225.2 87.5486 227.109 88.9315 226.887 88.4336C228.63 89.7889 228.906 90.3421 230.234 91.808C229.626 90.8953 228.63 89.8442 227.634 88.9868C226.611 88.1294 225.587 87.4656 224.924 87.1337C223.07 85.9444 223.209 85.2252 220.775 84.1189C220.996 84.4508 220.913 84.4784 221.605 84.9486C220.941 84.672 220.249 84.2295 219.585 83.8976C219.115 83.8146 220.554 84.5614 219.558 84.2018C219.198 83.9806 218.424 83.5933 218.645 83.538L218.811 83.5933C216.46 82.7083 217.373 82.3764 215.243 81.9338C215.354 82.0998 215.852 82.1551 216.294 82.404C216.598 82.7083 215.298 82.3764 214.358 82.0998C214.579 82.0445 213.556 81.7679 212.947 81.4913C212.588 81.104 214.579 82.0445 214.966 82.0168L213.196 81.2977L213.556 81.4636L211.537 80.9658C212.92 81.3806 212.09 81.4636 211.481 81.27C210.154 80.7445 208.799 80.2743 209.047 80.0807C208.799 80.2743 207.111 79.7211 205.894 79.4445C207.194 79.9147 206.005 79.6934 205.59 79.6658L203.682 78.8913C205.784 79.3892 203.294 78.5594 203.848 78.5318C204.511 78.4488 205.756 78.919 206.862 79.2786C204.843 78.1999 203.765 78.6701 201.939 77.9786C201.967 77.868 202.16 77.785 202.99 78.0063C202.686 77.8403 201.22 77.785 199.975 77.3701C200.307 77.5361 200.971 77.9233 199.671 77.702L198.067 77.0659C196.131 76.5957 197.348 77.2041 195.688 76.9829L196.712 77.3978C196.49 77.5914 194.554 76.9552 194.444 77.2041C195.439 77.4254 196.048 77.3424 197.071 77.619C197.403 77.9509 195.716 77.4531 195.08 77.4807C192.922 76.9276 193.393 77.0105 191.788 76.5127C191.788 76.1255 194.554 76.5403 194.305 75.9872C192.176 75.6276 189.05 75.2404 187.667 74.9085C185.731 74.7425 185.869 75.0468 186.118 75.3233C185.316 75.2404 184.929 75.1574 184.431 75.0468H185.344C182.965 74.8255 181.61 74.7978 179.121 74.4936C177.71 74.4106 178.263 74.6595 178.567 74.8808L177.046 74.7425L177.267 74.7978C176.908 74.9914 175.553 74.7702 174.557 74.6595C174.557 74.5766 175.193 74.6042 175.138 74.5489C174.253 74.3829 172.897 74.2723 172.151 74.3C172.151 74.217 172.787 74.051 173.865 74.217C173.976 74.2447 173.921 74.2723 174.031 74.3L175.857 74.3553C173.755 74.2723 172.538 73.9404 172.621 73.7191C170.519 73.6638 174.308 74.0787 171.819 73.9681C168.583 73.2766 165.595 73.6638 163.825 73C162.304 73.0553 160.478 73.1936 158.1 73.1383C158.1 73.3042 156.523 73.166 156.745 73.3596C159.013 73.6362 160.976 73.166 162.802 73.5532C163.825 73.5255 163.493 73.3596 163.936 73.2766C164.849 73.3042 165.678 73.3596 165.789 73.4979C163.687 73.4979 165.208 73.8851 162.553 73.7744C162.885 73.9404 165.042 73.9957 165.983 74.0787C165.706 74.134 165.983 74.2447 166.591 74.3553C165.9 74.4659 164.378 74.4936 163.604 74.5489C163.881 74.4936 163.383 74.4106 163.604 74.3829L160.838 74.4936C160.008 74.3553 159.759 74.217 160.23 74.1617C158.708 74.051 156.108 74.1893 156.108 73.9404C154.145 73.9404 156.717 74.1064 156.91 74.1617H156.745L158.819 74.217C159.04 74.4936 156.44 74.051 156.108 74.3276C155.776 74.7978 153.177 74.0787 151.711 74.1617L153.398 73.8298L151.932 73.8851C152.789 73.7468 152.789 73.5255 154.062 73.4149C152.043 73.3872 149.138 73.2766 147.838 73.3596C147.341 73.2489 147.119 73.166 147.341 73.0553C145.294 73.3042 144.16 73.0277 142.417 73.083C140.564 73.2489 144.298 73.166 142.943 73.3596C142.39 73.3042 141.366 73.3872 140.868 73.4425C141.422 73.3596 143.413 73.3872 144.768 73.4149C143.745 73.4425 143.855 73.5808 143.579 73.6362H145.266C145.155 73.8298 143.192 73.6915 142.39 73.8021C142.887 73.6362 142.611 73.6362 143.109 73.4425C141.643 73.5532 139.458 73.6362 138.185 73.6085C137.439 73.5808 138.794 73.4979 139.209 73.4425C138.877 73.3596 137.743 73.5808 137.466 73.4702C137.688 73.3596 138.351 73.4149 138.877 73.3596L134.59 73.5808C134.59 73.5255 135.641 73.4425 136.332 73.4149C135.032 73.4425 134.064 73.5255 132.571 73.8298C131.105 73.8851 129.418 73.9681 129.915 73.8574C129.252 73.9404 129.694 73.9404 129.694 73.9957C127.73 74.1617 127.509 74.3553 126.347 74.4659H127.26C125.352 74.5489 126.818 74.6595 125.13 74.7425C125.407 74.6319 125.269 74.5489 124.992 74.4936C124.716 74.6042 123.637 74.6595 122.918 74.7425C123.388 74.7702 121.369 74.9914 122.558 74.9361C120.871 75.1851 120.097 75.1851 118.88 75.434C119.654 75.351 117.441 75.6829 118.105 75.6553C116.473 75.8765 115.367 75.9595 115.782 75.8489C116.335 75.7659 117.248 75.6829 117.165 75.6276L114.205 76.0701C113.486 76.1531 112.518 76.2914 112.407 76.2637C111.467 76.485 109.614 76.7063 108.922 76.9276C109.918 76.7063 110.693 76.6233 111.08 76.5403L110.637 76.6233L110.886 76.5957L109.614 76.8999C110.831 76.7063 109.835 76.8169 111.55 76.5127C113.071 76.3467 108.176 77.2041 109.752 76.9829C111.024 76.7893 110.803 76.7616 111.854 76.568L111.578 76.5957L113.956 76.1808C114.067 76.2084 113.348 76.3467 113.348 76.3467C116.252 75.9318 116.722 75.9042 119.848 75.5446C119.626 75.5446 118.99 75.4893 120.373 75.2957C121.369 75.1297 121.507 75.2127 122.337 75.1297C121.839 75.2127 121.396 75.3233 120.733 75.351L120.788 75.434C118.465 75.8212 119.709 75.7659 116.529 76.1531C116.39 76.2361 114.095 76.5403 112.352 76.7616L113.209 76.7063C111.439 77.0382 112.85 76.6786 110.582 77.0659C109.614 77.1212 107.871 77.3424 109.144 77.0659C107.539 77.3148 106.986 77.4531 105.548 77.7297C104.663 77.868 105.991 77.5914 105.797 77.5914C104.746 77.8126 103.418 78.0892 104.22 77.9509L102.229 78.3658L103.169 78.1722L100.486 78.7807L101.371 78.5871L98.9652 79.1403L101.537 78.5594L100.542 78.7807C101.593 78.5594 102.644 78.3382 103.086 78.2828L101.454 78.6148L104.359 78.0339C104.469 78.0339 107.456 77.4807 106.433 77.702C106.599 77.6467 107.761 77.4531 108.369 77.3701C108.314 77.3978 106.765 77.6467 106.101 77.785C103.003 78.3382 106.156 77.7573 105.41 77.868L103.031 78.3105C103.28 78.2828 102.091 78.5041 103.64 78.2275L100.21 78.8913C99.9332 78.9467 100.818 78.7807 101.095 78.7254C100.818 78.7807 99.3247 79.0573 101.261 78.7254C100.708 78.836 102.201 78.5318 101.206 78.7254C101.98 78.5594 104.082 78.2275 103.252 78.3658L106.737 77.785C106.959 77.785 106.073 77.8956 105.686 77.9786L108.424 77.5637L107.65 77.6467C109.669 77.3701 110.914 77.1212 112.546 76.8722C112.324 76.9552 110.997 77.1488 109.946 77.3148C110.969 77.2595 110.61 77.1765 112.269 76.9829C112.49 76.9552 112.546 76.9829 112.463 77.0105L113.79 76.7893C114.178 76.7616 113.956 76.7893 113.79 76.8169C116.058 76.4574 113.707 76.7339 116.777 76.3191C114.924 76.485 115.229 76.5403 113.652 76.7339C112.739 76.7893 115.422 76.4297 115.865 76.3467C117.386 76.1808 117.552 76.2914 119.46 76.0148C118.133 76.1808 119.405 76.0978 117.524 76.2914C116.473 76.4574 118.105 76.2637 118.326 76.2914C118.824 76.2361 117.967 76.2361 119.377 76.0978L119.322 76.1255L121.59 75.8212C123.72 75.6829 126.403 75.2957 127.869 75.3233L127.509 75.2127L131.713 74.9085C131.492 74.9914 130.607 75.0468 129.639 75.1297C132.045 75.0191 134.175 74.8255 135.807 74.6319C134.617 74.5766 134.451 74.6042 133.317 74.5766C134.866 74.2723 135.198 74.6042 137.217 74.4106C137.273 74.5766 136.609 74.5766 137.107 74.6872C137.936 74.5489 139.347 74.5212 140.315 74.4106C140.841 74.5489 139.928 74.7149 137.854 74.7702C136.277 74.6872 134.534 74.9638 133.234 74.9085L134.037 74.9638C132.46 75.0744 131.52 75.1021 130.164 75.2127L130.22 75.1851L129.556 75.351L130.275 75.3233C129.777 75.434 128.284 75.6276 127.841 75.6553C130.081 75.517 130.22 75.2957 131.298 75.1297C133.317 75.0468 134.12 75.268 135.475 75.1021C135.585 75.1574 136.72 75.2127 135.834 75.2957C134.728 75.351 133.926 75.2957 133.815 75.4063C135.005 75.3787 134.534 75.434 136.332 75.3787C136.664 75.2404 137.992 75.0744 139.292 74.9361C140.647 74.8255 142.39 74.8255 143.441 74.8531C142.085 74.8808 140.758 75.0468 141.09 75.1297C141.864 74.9638 143.717 75.2404 143.33 75.0191C144.907 75.0191 147.534 75.0468 147.7 75.268C146.206 75.3233 144.768 75.1851 143.524 75.2127C143.883 75.2127 144.215 75.268 143.994 75.2957L142.141 75.268C143.551 75.351 143.275 75.4063 145.072 75.4063C144.962 75.3787 144.741 75.351 144.907 75.351L146.372 75.3787L146.428 75.5723C147.755 75.517 150.355 75.7935 152.817 75.7659L152.596 75.7935C154.559 75.9318 154.725 75.517 156.855 75.5723C156.247 75.6276 156.523 75.7382 156.634 75.8489C157.685 75.7935 158.266 76.0148 159.317 76.1255C158.1 75.9318 160.147 75.9595 159.261 75.8212C159.206 75.5999 161.391 75.7382 162.498 75.8212C163.161 76.1531 159.04 75.7382 160.7 76.1531C161.806 76.2637 162.11 76.1255 161.308 76.0148C162.691 76.1531 164.821 76.3467 165.817 76.6233C167.504 76.5403 168.168 76.7339 169.246 76.5403C168.361 76.4574 168.278 76.6786 167.172 76.4574L168.417 76.3467C170.021 76.485 171.293 76.8169 172.399 76.9552L171.21 76.9276L171.265 76.8999C170.823 76.9552 169.329 76.7339 169.468 76.9276C170.546 76.8169 171.348 77.1212 172.759 77.1212L172.704 77.1488C175.165 77.2318 176.88 78.0339 178.457 77.7573C178.014 77.702 177.157 77.3978 177.433 77.3424C177.987 77.5361 179.48 77.702 179.397 77.8126L178.899 77.785C180.282 78.0063 181.112 78.1722 181.61 78.1999C182.025 78.0892 181.637 77.8956 182.661 77.9509C185.067 78.4488 181.61 78.1999 183.242 78.5871L185.51 78.7807L185.98 79.0296C189.299 79.7764 191.954 79.7488 195.467 80.5509C195.467 80.8551 192.895 80.3849 192.037 80.219C193.088 80.6892 194.72 80.6892 196.131 81.2147C197.458 81.5742 198.537 81.5742 198.371 81.3806C200.058 81.6849 199.505 81.8508 199.699 81.9615C200.307 81.7955 202.382 82.4593 203.709 82.7912V82.9849L205.811 83.3997C205.286 83.2061 205.811 83.2061 205.839 83.0955L206.365 83.2891C204.511 82.1551 201.718 82.2657 199.754 81.1594C200.418 81.27 199.588 80.9381 200.252 81.0487C200.777 81.2147 200.888 81.27 200.916 81.353C201.275 81.2977 202.16 81.4083 201.026 81.104C201.165 80.7445 203.433 81.436 205.009 81.7679C206.171 82.3764 203.626 81.7402 202.935 81.7402C203.543 81.8785 204.069 81.8508 204.899 82.2104L204.594 82.4317C206.752 82.9295 205.258 82.3487 205.811 82.2381C206.503 82.0445 207.72 82.8466 208.301 83.0125L207.637 82.8742C209.241 83.538 209.711 83.3721 211.149 83.9253L211.758 84.3955C210.043 83.4274 209.379 83.9806 208.384 83.4551C210.956 84.6444 207.609 83.8146 206.724 83.8146C207.886 84.1465 208.909 84.5337 209.49 84.921C211.26 85.1422 212.864 86.3592 214.552 86.5805C215.381 86.9954 213.722 86.4422 214.607 86.8571L219.613 89.1528C220.443 89.6506 220.222 89.6783 220.388 89.9272C222.268 91.1995 223.541 92.0293 224.758 92.9697C225.919 93.9101 227.164 95.0441 227.745 96.8973C227.634 96.7313 227.496 96.593 227.385 96.4271C227.69 97.1738 227.717 97.7823 227.994 98.1419C227.772 98.6398 227.855 99.3589 227.69 100.189C227.551 101.018 227.109 101.959 226.445 102.346C225.864 103.065 225.56 103.48 225.339 103.923C225.09 104.337 224.896 104.752 224.287 105.306C224.204 105.195 224.426 104.697 223.734 105.195C221.715 106.965 219.364 108.376 216.847 109.648C214.33 110.92 211.592 112.027 208.522 113.105C208.55 113.05 208.854 112.884 208.992 112.829C205.009 114.129 201.082 115.761 197.569 116.369C196.933 116.59 194.997 117.144 195.661 117.227C196.49 117.088 196.656 117.337 196.629 117.531C193.558 118.444 195.024 117.448 192.95 117.973C192.203 117.669 194.195 117.42 194.112 117.033L191.152 117.89C189.437 118.084 187.778 118.609 186.257 118.637C186.92 118.582 186.422 118.278 187.556 118.25C187.391 118.305 187.501 118.305 187.335 118.361C189.88 117.973 188.663 117.918 190.903 117.42C188.967 117.89 186.284 118.471 184.514 118.637C184.957 118.858 183.103 118.997 182.633 119.246H182.523C182.55 119.384 181.444 119.605 181.112 119.688L180.614 119.384C179.84 119.55 180.863 119.55 180.089 119.688C179.01 119.937 175.055 120.435 174.75 120.048C173.423 120.214 173.036 120.463 171.653 120.546C171.763 120.435 172.095 120.38 172.123 120.324C169.191 120.546 165.568 120.933 162.774 120.877C160.506 121.099 158.542 121.237 157.104 121.541C157.713 121.486 159.51 121.486 158.404 121.763C157.796 121.929 156.855 121.929 155.887 122.012C156.108 121.818 153.481 121.901 155.362 121.735C154.864 121.348 151.268 121.901 151.296 121.514C150.853 121.652 148.143 121.597 147.147 121.818C146.926 121.652 148.613 121.707 148.613 121.569L147.396 121.624V121.514C145.045 121.431 144.602 121.873 143.192 121.929L143.247 121.873L142.307 121.929L143.441 121.652C141.919 121.68 141.145 121.929 139.458 121.956L139.292 121.846L138.268 121.929C138.434 121.929 138.49 121.873 138.407 121.846C137.439 122.094 135.254 121.901 134.369 122.094C133.705 122.012 133.152 121.652 132.239 121.818L132.432 121.486C134.673 121.569 133.262 121.763 135.613 121.763C133.898 121.237 129.03 121.043 125.794 120.795C123.167 120.822 118.907 120.02 117.746 120.352L118.05 120.186L113.68 119.495C109.946 119.08 106.184 118.305 103.335 117.973L102.588 117.697C101.095 117.641 98.6332 117.144 96.2822 116.618C93.9589 116.093 91.7462 115.539 90.7505 115.484C89.1739 114.876 91.276 115.456 91.4696 115.429C90.3079 115.041 88.2335 114.71 87.1825 114.129C87.2101 114.073 88.842 114.627 88.1229 114.322C87.3208 113.907 86.8782 114.046 85.9655 113.548C86.3251 113.824 84.3336 113.271 82.9507 112.69C83.1996 112.801 83.1996 112.801 83.3102 112.856C83.4762 113.022 82.4528 112.58 81.872 112.359C81.872 112.359 81.9273 112.359 82.0932 112.414C78.5253 110.92 74.736 109.012 71.6382 106.163C70.117 104.725 68.7893 103.038 68.1808 101.046C67.5447 99.0823 67.7936 96.8973 68.7064 95.0994C68.5127 95.542 68.3468 96.0122 68.2085 96.4824C68.4298 95.3484 69.5361 93.5782 69.9787 93.0803L69.868 93.2186C71.2786 91.5868 71.4169 91.3102 72.7169 90.2591L72.468 90.4804C74.4871 88.7932 75.8147 87.9634 78.0551 86.6358C79.8252 85.6678 79.6593 85.7784 80.9039 85.1699L82.5081 84.3678L81.9826 84.6167C81.4294 84.8657 83.089 84.0912 83.8911 83.7593L81.4571 84.8103C79.8805 85.5571 79.9082 85.4742 78.138 86.3869C77.17 86.9677 75.6487 87.7145 74.1828 88.7932C74.9296 88.1847 72.4126 90.0379 73.6573 89.0421C73.353 89.2358 72.5786 89.8166 71.7765 90.5081C70.9744 91.1995 70.1999 92.0293 69.7297 92.5825C69.868 92.3889 69.8127 92.4165 70.034 92.1676L69.0106 93.4399C68.8447 93.6612 68.6787 93.8271 68.2915 94.4909H68.4021C68.1532 95.0165 68.0149 95.1548 67.8213 95.625C67.9872 95.2377 68.4298 94.4909 68.2362 94.9058C67.9596 95.542 67.766 96.0951 67.5723 96.8143C67.517 96.8143 67.6553 96.2888 67.766 95.9569C67.766 95.9569 67.6277 96.3441 67.517 96.759C67.4064 97.1739 67.3234 97.5887 67.2958 97.644C67.3511 97.0632 67.5447 96.3164 67.7106 95.8186C67.0192 97.893 67.6 95.9569 67.2404 96.9802C67.3234 96.8419 67.2128 97.3121 67.1298 97.976C67.0468 98.6398 67.0468 99.4972 67.1575 100.078C67.1298 100.216 67.0468 99.2483 67.0192 98.944C66.9362 100.106 67.1298 100.963 67.4617 101.848C67.8213 102.733 68.3191 103.618 69.1212 104.808C69.0659 104.78 68.8447 104.503 68.7617 104.337C69.5638 105.444 70.117 106.218 70.7808 106.799C71.6935 107.712 70.8084 107.131 72.302 108.431C71.9424 107.961 74.0998 109.925 74.2934 109.759L75.4828 110.699C76.6721 111.308 75.3445 110.256 77.5849 111.556C79.6039 112.746 77.2253 111.75 78.387 112.497L78.9401 112.663L79.9359 113.271L79.7699 113.188C80.4061 113.465 81.5401 114.046 81.5124 114.101C81.4018 114.101 80.7103 113.769 80.5997 113.769C81.6507 114.184 84.6102 115.954 85.8825 116.037C86.491 116.341 87.791 116.839 87.5974 116.867C88.2335 116.922 90.4462 117.946 91.359 118.112C91.2207 118.139 92.0228 118.499 92.6866 118.637C91.8292 118.305 92.41 118.416 93.0185 118.499C93.7376 118.858 95.978 119.384 96.2546 119.688C97.4992 119.909 97.0844 119.633 97.3886 119.55C98.1354 119.909 100.625 120.49 100.127 120.629C99.463 120.435 97.9694 119.992 98.2184 120.241C99.463 120.656 98.7992 120.324 99.8502 120.546C99.7673 120.573 100.542 120.877 100.32 120.905C100.957 121.043 101.814 121.237 102.699 121.486C101.344 121.043 103.612 121.514 102.81 121.209L101.454 121.099C99.8502 120.712 101.15 120.877 100.542 120.656C103.391 121.265 102.893 120.877 105.576 121.32C106.073 121.458 106.959 121.735 107.235 121.79C106.35 121.624 106.461 121.929 106.959 122.067C108.507 122.15 109.614 122.731 110.831 123.007C109.78 122.758 110.361 122.675 110.775 122.675C113.375 122.952 111.771 122.952 112.878 123.256C116.86 123.892 119.377 124.584 122.613 124.805L121.12 124.363L120.594 124.556C119.433 124.197 120.871 124.031 121.562 123.948C121.728 124.058 123.72 124.224 122.89 124.28L124.826 124.39C124.55 124.252 123.305 124.169 124.218 124.141C124.826 124.28 126.818 124.556 125.545 124.584C126.569 124.694 127.869 124.722 127.647 124.556C129.279 124.694 127.454 124.888 126.707 124.916C128.007 125.054 127.813 125.275 127.426 125.303L129.224 125.441C128.837 125.469 128.809 125.58 128.422 125.635C129.611 125.856 130.469 125.635 131.492 125.939L131.962 125.745C135.254 126.188 134.894 126.188 137.964 126.382L137.466 126.188C139.79 125.994 139.153 126.575 142.307 126.575C144.077 126.52 145.211 126.465 144.99 126.188C146.013 126.105 146.234 126.271 146.704 126.382C147.506 126.243 149.194 125.967 150.438 126.16C149.581 126.243 148.917 126.299 148.115 126.354C148.336 126.658 150.853 126.437 152.153 126.575C153.066 126.437 156.025 126.05 157.657 125.745C156.91 125.524 157.187 125.165 158.653 124.888C158.432 125.082 160.644 125.026 161.668 125.109C161.17 125.303 163.963 125.441 161.806 125.607C161.17 125.552 160.893 125.303 160.036 125.414C160.561 125.58 161.944 125.745 163.355 125.856C163.244 125.967 162.525 126.105 161.778 126.133C162.138 125.911 161.917 125.856 161.861 125.773Z" fill="#F1CB13"/>
<path d="M112.075 76.679L112.297 76.6514L112.02 76.679C112.103 76.6514 112.103 76.679 112.075 76.679Z" fill="#F1CB13"/>
<path d="M205.867 119.439C205.977 119.383 206.171 119.3 206.143 119.245C206.033 119.3 205.922 119.356 205.867 119.439Z" fill="#F1CB13"/>
<path d="M232.641 101.682C232.613 101.709 232.585 101.709 232.557 101.709C232.557 101.765 232.585 101.765 232.641 101.682Z" fill="#F1CB13"/>
<path d="M99.5183 107.85H101.703C102.45 107.85 103.031 108.126 103.446 108.652C103.805 109.122 103.999 109.758 103.999 110.505C103.999 111.086 103.888 111.611 103.667 112.081C103.28 112.911 102.644 113.326 101.703 113.326H99.5183V107.85ZM101.565 112.69C101.814 112.69 102.008 112.662 102.174 112.607C102.45 112.524 102.671 112.33 102.865 112.054C103.003 111.832 103.114 111.556 103.169 111.196C103.197 111.003 103.225 110.809 103.225 110.615C103.225 109.952 103.086 109.398 102.837 109.039C102.561 108.652 102.146 108.486 101.565 108.486H100.293V112.69H101.565ZM106.35 113.326H107.097V107.85H106.35V113.326ZM109.558 113.326H113.597V112.662H110.278V110.809H113.292V110.173H110.278V108.513H113.514V107.85H109.558V113.326ZM122.696 107.988C122.337 107.794 121.894 107.684 121.369 107.684C120.622 107.684 120.041 107.933 119.571 108.458C119.073 109.011 118.824 109.73 118.824 110.643C118.824 111.556 119.073 112.275 119.571 112.8C120.041 113.215 120.567 113.437 121.231 113.437C121.728 113.437 122.143 113.354 122.448 113.16C122.641 113.049 122.862 112.856 123.111 112.579L123.305 113.271H123.775V110.339H121.369V110.947H123.084C123.084 111.583 122.918 112.054 122.586 112.33C122.282 112.607 121.867 112.773 121.369 112.773C120.733 112.773 120.29 112.579 120.014 112.164C119.737 111.749 119.599 111.224 119.599 110.588C119.599 109.841 119.765 109.26 120.097 108.901C120.428 108.513 120.843 108.32 121.341 108.32C121.756 108.32 122.116 108.403 122.392 108.596C122.669 108.79 122.835 109.067 122.945 109.481H123.692C123.582 108.79 123.25 108.292 122.696 107.988ZM126.237 107.85V110.92C126.237 111.583 126.32 112.109 126.513 112.469C126.845 113.132 127.481 113.464 128.394 113.464C129.307 113.464 129.943 113.132 130.275 112.469C130.469 112.109 130.552 111.583 130.552 110.92V107.85H129.805V111.224C129.805 111.611 129.749 111.943 129.611 112.164C129.39 112.607 128.947 112.8 128.311 112.8C127.786 112.8 127.398 112.607 127.177 112.192C127.039 111.943 126.956 111.611 126.956 111.196V107.822H126.237V107.85ZM132.405 107.85V108.513H134.258V113.326H135.005V108.486H136.858V107.822H132.405V107.85ZM138.794 113.326H142.832V112.662H139.541V110.809H142.556V110.173H139.541V108.513H142.749V107.85H138.766V113.326H138.794ZM147.838 107.85L149.277 113.326H150.051L151.323 108.79L152.596 113.326H153.37L154.808 107.85H154.006L152.983 112.303L151.738 107.85H150.936L149.691 112.303L148.668 107.85H147.838ZM157.989 107.85H158.819L160.81 113.326H160.008L159.427 111.694H157.27L156.689 113.326H155.942L157.989 107.85ZM159.234 111.086L158.404 108.679L157.519 111.086H159.234ZM162.691 113.326H163.438V110.754H166.259V113.326H167.006V107.85H166.259V110.118H163.438V107.85H162.691V113.326ZM169.357 113.326H172.842V112.662H170.104V107.85H169.357V113.326Z" fill="#636363"/>
</svg>
