<svg width="300" height="200" viewBox="0 0 300 200" fill="none" xmlns="http://www.w3.org/2000/svg">
<path d="M235.355 87.0303C234.838 87.0303 233.257 87.0303 231.432 89.2505L231.493 89.3417C231.98 88.7638 232.557 88.2468 233.196 87.821C233.744 87.4561 234.352 87.2128 235.021 87.1215C235.416 87.0911 236.785 87.1215 238.306 87.1215L238.245 87.0303H235.355Z" fill="#FFD700"/>
<path d="M224.65 87.0303L218.932 96.9451L217.138 100.078L216.925 100.443L216.895 100.473L222.339 109.901V109.871C222.217 109.658 222.126 109.475 222.095 109.384C221.852 108.776 221.73 108.107 221.761 107.468C221.943 105.887 222.46 104.336 223.312 102.997L226.657 97.1884C226.657 97.1884 228.877 93.3563 230.033 91.3794C230.793 89.9804 231.858 88.7334 233.166 87.7906C233.713 87.4256 234.321 87.2128 234.96 87.1215C235.386 87.0607 236.724 87.0607 238.275 87.0607H224.65V87.0303Z" fill="#FFD700"/>
<path d="M216.925 100.564C217.016 100.717 217.107 100.869 217.168 101.021L216.925 100.564ZM244.327 103.302C243.932 103.819 243.415 104.244 242.837 104.549C241.377 105.187 239.796 105.491 238.184 105.431H224.741C223.129 105.491 221.548 105.187 220.088 104.549C219.51 104.244 218.993 103.819 218.598 103.302C218.385 103.028 217.837 102.085 217.199 100.99L218.567 103.362L223.707 112.274H239.218L245.97 100.595C245.209 101.842 244.54 102.967 244.327 103.302Z" fill="#FFD700"/>
<path d="M234.96 87.0912C234.321 87.1825 233.683 87.3954 233.135 87.7603C232.496 88.1861 231.949 88.7032 231.462 89.281C232.01 89.9197 232.466 90.6192 232.892 91.3491C234.048 93.326 236.268 97.1581 236.268 97.1581L239.613 102.967C240.465 104.336 240.982 105.856 241.164 107.438C241.195 108.107 241.073 108.746 240.83 109.354C240.678 109.719 240.039 110.814 239.309 112.061L246 100.443L238.275 87C236.724 87.0304 235.386 87.0304 234.96 87.0912Z" fill="#FFD700"/>
<path d="M60.9039 93.9042C59.9915 93.9042 59.079 94.1171 58.2275 94.4821C57.3759 94.847 56.6156 95.364 55.9769 96.0331C55.3382 96.7022 54.8212 97.4626 54.4866 98.3446C54.1521 99.1961 54 100.109 54 101.021C54 105.157 57.0109 108.016 60.691 108.016C61.6338 108.046 62.5766 107.864 63.4282 107.499C64.2797 107.134 65.0705 106.556 65.6788 105.826L63.7931 103.941C63.4282 104.336 62.9416 104.64 62.4549 104.853C61.9379 105.066 61.3905 105.157 60.843 105.157C58.6837 105.157 57.2238 103.332 57.2238 100.93C57.2238 98.4966 58.7141 96.7022 60.8126 96.7022C61.3296 96.7022 61.8467 96.7935 62.3333 97.0064C62.8199 97.2193 63.2457 97.493 63.6107 97.8579L65.5267 95.8811C64.9184 95.2424 64.1885 94.7558 63.3978 94.4212C62.6374 94.0563 61.7554 93.9042 60.9039 93.9042ZM73.8904 93.9042C72.9476 93.9042 72.0352 94.0563 71.1532 94.4212C70.2712 94.7862 69.5109 95.3032 68.8418 95.9723C68.1727 96.6414 67.6556 97.4322 67.2907 98.2837C66.9257 99.1657 66.7737 100.078 66.7737 101.021C66.7432 101.964 66.8953 102.876 67.2603 103.728C67.5948 104.579 68.1118 105.37 68.7809 106.039C69.45 106.708 70.2408 107.195 71.0924 107.56C71.9439 107.894 72.8868 108.046 73.7992 108.016C74.742 108.016 75.6544 107.864 76.5364 107.499C77.4184 107.134 78.1787 106.617 78.8478 105.948C79.5169 105.279 80.0339 104.488 80.3989 103.637C80.7638 102.755 80.9159 101.842 80.9159 100.899C80.9463 99.9565 80.7943 99.0441 80.4293 98.1925C80.0948 97.3409 79.5777 96.5502 78.9086 95.8811C78.2395 95.212 77.4488 94.7254 76.5972 94.3604C75.7456 94.0258 74.8028 93.8738 73.8904 93.9042ZM84.2006 94.1475L82.8624 107.773H85.6908L86.3295 100.413C86.4512 98.9832 86.4512 97.493 86.4512 97.493H86.5424C86.5424 97.493 86.8465 98.9832 87.2723 100.352L89.5837 107.773H92.2601L94.5716 100.261C94.9669 98.9528 95.3015 97.493 95.3015 97.493H95.3319C95.3319 97.493 95.3319 98.9832 95.484 100.443L96.1226 107.773H99.1336L97.7954 94.1475H93.8416L91.7735 100.899C91.439 101.994 91.1044 103.393 91.1044 103.393C91.1044 103.393 90.7395 101.994 90.3745 100.869L88.276 94.1475H84.2006ZM103.209 94.1475L101.901 107.773H104.73L105.368 100.413C105.49 98.9832 105.52 97.493 105.52 97.493H105.551C105.551 97.493 105.885 98.9832 106.281 100.352L108.592 107.773H111.269L113.55 100.261C113.945 98.9528 114.279 97.493 114.279 97.493H114.31C114.31 97.493 114.31 98.9832 114.462 100.443L115.101 107.773H118.112L116.773 94.1475H112.789L110.721 100.899C110.387 101.994 110.052 103.393 110.052 103.393C110.052 103.393 109.687 101.994 109.322 100.869L107.224 94.1475H103.209ZM121.335 94.1475V107.773H130.216V105.157H124.316V102.177H129.304V99.6219H124.316V96.7327H130.125V94.1171L121.335 94.1475ZM133.714 94.1475V107.773H136.694V102.815H137.607L140.526 107.773H144.085L140.709 102.298C141.53 102.055 142.229 101.538 142.716 100.869C143.203 100.2 143.476 99.3482 143.476 98.527C143.476 95.7594 141.925 94.1475 137.819 94.1475H133.714ZM145.97 94.1475V96.7631H151.475L145.849 105.522V107.773H155.338V105.188H149.59L155.216 96.4285V94.1475H145.97ZM158.409 94.1475V107.773H163.61C166.043 107.773 168.75 106.678 168.75 103.849C168.78 103.028 168.476 102.268 167.959 101.66C167.412 101.051 166.651 100.717 165.861 100.656C166.53 100.504 167.108 100.109 167.533 99.5611C167.959 99.0137 168.172 98.3446 168.142 97.6451C168.142 94.6949 165.526 94.1475 163.154 94.1475H158.409ZM174.589 94.1475L169.723 107.773H172.704L173.647 105.005H178.938L179.881 107.773H183.075L178.209 94.1475H174.589ZM184.96 94.1475V107.773H187.698V101.295C187.698 100.048 187.606 98.8008 187.606 98.8008C187.606 98.8008 188.245 99.8956 188.945 100.96L193.567 107.773H196.213V94.1475H193.446V100.352C193.446 101.599 193.537 102.815 193.537 102.815C193.537 102.815 192.898 101.72 192.199 100.656L187.819 94.1779L184.96 94.1475ZM199.528 94.1475V107.773H202.479V101.386L206.858 107.773H210.508L205.52 100.443L210.051 94.1171H206.584L202.509 100.261V94.1475H199.528ZM73.8296 96.7022C76.1714 96.7022 77.6921 98.5879 77.6921 100.991C77.6921 103.302 76.2322 105.248 73.8296 105.248C71.4269 105.248 69.9671 103.363 69.9671 100.96C69.9975 98.6487 71.4269 96.6718 73.8296 96.7022ZM136.725 96.7022H137.941C139.523 96.7022 140.435 97.1888 140.435 98.4966C140.435 99.8348 139.583 100.321 137.941 100.321H136.725V96.7022ZM161.39 96.7022H163.123C164.066 96.7022 165.009 97.0064 165.009 98.1317C165.009 99.257 164.188 99.6523 163.245 99.6523H161.36L161.39 96.7022ZM176.353 96.8847C176.353 96.8847 176.597 97.7971 176.931 98.8008L178.117 102.42H174.559L175.745 98.8312C176.08 97.7971 176.353 96.8847 176.353 96.8847ZM161.39 102.146H163.58C164.918 102.146 165.769 102.572 165.769 103.637C165.769 104.701 165.07 105.218 163.58 105.218H161.39V102.146Z" fill="black"/>
</svg>
