<svg width="600" height="300" viewBox="0 0 600 300" fill="none" xmlns="http://www.w3.org/2000/svg">
<path d="M174.515 132.75V167.749C175.735 167.948 177.589 167.948 179.345 167.948C190.712 167.998 197.445 161.567 197.445 149.202C197.494 138.483 191.395 132.251 180.516 132.251C177.735 132.251 175.784 132.451 174.515 132.75ZM165.831 174.33V126.268C169.734 125.67 174.564 125.271 179.735 125.271C188.663 125.271 194.762 127.166 199.153 130.905C203.836 134.744 206.666 140.627 206.666 148.853C206.666 157.628 203.739 164.059 199.201 168.247C194.469 172.685 186.858 174.928 177.589 174.928C172.564 174.978 168.709 174.679 165.831 174.33ZM153 150C153 178.717 175.784 202 203.885 202C231.986 202 254.77 178.717 254.77 150C254.77 140.777 252.428 132.102 248.281 124.623L231.596 174.479H221.644L206.178 125.62H215.691L222.18 147.856C224.034 153.988 225.644 159.672 226.864 165.605H227.01C228.279 159.822 230.084 153.889 231.889 147.906L242.134 115.749C232.816 104.88 219.107 98 203.885 98C175.784 98 153 121.283 153 150Z" fill="#009DE0"/>
<path d="M280.884 128.545V146H277.722V128.545H280.884ZM287.256 138.33V146H284.171V128.545H287.188V135.134H287.342C287.648 134.395 288.123 133.812 288.765 133.386C289.413 132.955 290.237 132.739 291.237 132.739C292.146 132.739 292.938 132.929 293.614 133.31C294.29 133.69 294.813 134.247 295.183 134.98C295.558 135.713 295.745 136.608 295.745 137.665V146H292.66V138.142C292.66 137.261 292.433 136.577 291.978 136.088C291.529 135.594 290.898 135.347 290.086 135.347C289.54 135.347 289.052 135.466 288.62 135.705C288.194 135.937 287.859 136.276 287.614 136.719C287.376 137.162 287.256 137.699 287.256 138.33ZM298.89 146V132.909H301.881V135.091H302.018C302.256 134.335 302.665 133.753 303.245 133.344C303.83 132.929 304.498 132.722 305.248 132.722C305.418 132.722 305.609 132.73 305.819 132.747C306.035 132.759 306.214 132.778 306.356 132.807V135.645C306.225 135.599 306.018 135.56 305.734 135.526C305.455 135.486 305.185 135.466 304.924 135.466C304.362 135.466 303.856 135.588 303.407 135.832C302.964 136.071 302.614 136.403 302.359 136.83C302.103 137.256 301.975 137.747 301.975 138.304V146H298.89ZM313.662 146.256C312.349 146.256 311.216 145.983 310.261 145.438C309.313 144.886 308.582 144.108 308.071 143.102C307.56 142.091 307.304 140.901 307.304 139.531C307.304 138.185 307.56 137.003 308.071 135.986C308.588 134.963 309.31 134.168 310.236 133.599C311.162 133.026 312.25 132.739 313.5 132.739C314.307 132.739 315.068 132.869 315.784 133.131C316.506 133.386 317.142 133.784 317.693 134.324C318.25 134.864 318.688 135.551 319.006 136.386C319.324 137.216 319.483 138.205 319.483 139.352V140.298H308.753V138.219H316.526C316.52 137.628 316.392 137.102 316.142 136.642C315.892 136.176 315.543 135.81 315.094 135.543C314.651 135.276 314.134 135.142 313.543 135.142C312.912 135.142 312.358 135.295 311.881 135.602C311.403 135.903 311.031 136.301 310.764 136.795C310.503 137.284 310.369 137.821 310.364 138.406V140.222C310.364 140.983 310.503 141.636 310.781 142.182C311.06 142.722 311.449 143.136 311.949 143.426C312.449 143.71 313.034 143.852 313.705 143.852C314.153 143.852 314.56 143.79 314.923 143.665C315.287 143.534 315.602 143.344 315.869 143.094C316.136 142.844 316.338 142.534 316.474 142.165L319.355 142.489C319.173 143.25 318.827 143.915 318.315 144.483C317.81 145.045 317.162 145.483 316.372 145.795C315.582 146.102 314.679 146.256 313.662 146.256ZM328.183 146V128.545H331.344V143.349H339.032V146H328.183ZM341.64 146V132.909H344.725V146H341.64ZM343.191 131.051C342.702 131.051 342.282 130.889 341.93 130.565C341.577 130.236 341.401 129.841 341.401 129.381C341.401 128.915 341.577 128.52 341.93 128.196C342.282 127.866 342.702 127.702 343.191 127.702C343.685 127.702 344.106 127.866 344.452 128.196C344.805 128.52 344.981 128.915 344.981 129.381C344.981 129.841 344.805 130.236 344.452 130.565C344.106 130.889 343.685 131.051 343.191 131.051ZM356.634 150.909V143.938H356.506C356.347 144.256 356.116 144.594 355.815 144.952C355.514 145.304 355.116 145.605 354.622 145.855C354.128 146.105 353.506 146.23 352.756 146.23C351.727 146.23 350.807 145.966 349.994 145.438C349.182 144.909 348.54 144.142 348.068 143.136C347.597 142.131 347.361 140.909 347.361 139.472C347.361 138.017 347.599 136.79 348.077 135.79C348.56 134.784 349.21 134.026 350.028 133.514C350.847 132.997 351.759 132.739 352.764 132.739C353.531 132.739 354.162 132.869 354.656 133.131C355.151 133.386 355.543 133.696 355.832 134.06C356.122 134.418 356.347 134.756 356.506 135.074H356.693V132.909H359.727V150.909H356.634ZM353.616 143.699C354.27 143.699 354.827 143.523 355.287 143.17C355.747 142.812 356.097 142.315 356.335 141.679C356.574 141.043 356.693 140.301 356.693 139.455C356.693 138.608 356.574 137.872 356.335 137.247C356.102 136.622 355.756 136.136 355.295 135.79C354.841 135.443 354.281 135.27 353.616 135.27C352.929 135.27 352.355 135.449 351.895 135.807C351.435 136.165 351.088 136.659 350.855 137.29C350.622 137.92 350.506 138.642 350.506 139.455C350.506 140.273 350.622 141.003 350.855 141.645C351.094 142.281 351.443 142.784 351.903 143.153C352.369 143.517 352.94 143.699 353.616 143.699ZM371.241 140.494V132.909H374.327V146H371.335V143.673H371.199C370.903 144.406 370.418 145.006 369.741 145.472C369.071 145.937 368.244 146.17 367.261 146.17C366.403 146.17 365.645 145.98 364.986 145.599C364.332 145.213 363.821 144.653 363.452 143.92C363.082 143.182 362.898 142.29 362.898 141.244V132.909H365.983V140.767C365.983 141.597 366.21 142.256 366.665 142.744C367.119 143.233 367.716 143.477 368.455 143.477C368.909 143.477 369.349 143.366 369.776 143.145C370.202 142.923 370.551 142.594 370.824 142.156C371.102 141.713 371.241 141.159 371.241 140.494ZM377.499 146V132.909H380.585V146H377.499ZM379.05 131.051C378.562 131.051 378.141 130.889 377.789 130.565C377.437 130.236 377.261 129.841 377.261 129.381C377.261 128.915 377.437 128.52 377.789 128.196C378.141 127.866 378.562 127.702 379.05 127.702C379.545 127.702 379.965 127.866 380.312 128.196C380.664 128.52 380.84 128.915 380.84 129.381C380.84 129.841 380.664 130.236 380.312 130.565C379.965 130.889 379.545 131.051 379.05 131.051ZM388.615 146.23C387.587 146.23 386.666 145.966 385.854 145.438C385.041 144.909 384.399 144.142 383.928 143.136C383.456 142.131 383.22 140.909 383.22 139.472C383.22 138.017 383.459 136.79 383.936 135.79C384.419 134.784 385.07 134.026 385.888 133.514C386.706 132.997 387.618 132.739 388.624 132.739C389.391 132.739 390.021 132.869 390.516 133.131C391.01 133.386 391.402 133.696 391.692 134.06C391.982 134.418 392.206 134.756 392.365 135.074H392.493V128.545H395.587V146H392.553V143.938H392.365C392.206 144.256 391.976 144.594 391.675 144.952C391.374 145.304 390.976 145.605 390.482 145.855C389.987 146.105 389.365 146.23 388.615 146.23ZM389.476 143.699C390.129 143.699 390.686 143.523 391.146 143.17C391.607 142.812 391.956 142.315 392.195 141.679C392.433 141.043 392.553 140.301 392.553 139.455C392.553 138.608 392.433 137.872 392.195 137.247C391.962 136.622 391.615 136.136 391.155 135.79C390.7 135.443 390.141 135.27 389.476 135.27C388.788 135.27 388.214 135.449 387.754 135.807C387.294 136.165 386.947 136.659 386.714 137.29C386.482 137.92 386.365 138.642 386.365 139.455C386.365 140.273 386.482 141.003 386.714 141.645C386.953 142.281 387.303 142.784 387.763 143.153C388.229 143.517 388.8 143.699 389.476 143.699ZM398.874 146V132.909H401.96V146H398.874ZM400.425 131.051C399.937 131.051 399.516 130.889 399.164 130.565C398.812 130.236 398.636 129.841 398.636 129.381C398.636 128.915 398.812 128.52 399.164 128.196C399.516 127.866 399.937 127.702 400.425 127.702C400.92 127.702 401.34 127.866 401.687 128.196C402.039 128.52 402.215 128.915 402.215 129.381C402.215 129.841 402.039 130.236 401.687 130.565C401.34 130.889 400.92 131.051 400.425 131.051ZM411.669 132.909V135.295H404.143V132.909H411.669ZM406.001 129.773H409.087V142.062C409.087 142.477 409.149 142.795 409.274 143.017C409.405 143.233 409.575 143.381 409.786 143.46C409.996 143.54 410.229 143.58 410.484 143.58C410.678 143.58 410.854 143.565 411.013 143.537C411.178 143.509 411.303 143.483 411.388 143.46L411.908 145.872C411.743 145.929 411.507 145.991 411.2 146.06C410.899 146.128 410.53 146.168 410.092 146.179C409.32 146.202 408.624 146.085 408.004 145.83C407.385 145.568 406.893 145.165 406.53 144.619C406.172 144.074 405.996 143.392 406.001 142.574V129.773ZM418.016 146.264C417.187 146.264 416.44 146.116 415.775 145.821C415.116 145.52 414.593 145.077 414.207 144.491C413.826 143.906 413.636 143.185 413.636 142.327C413.636 141.588 413.772 140.977 414.045 140.494C414.317 140.011 414.69 139.625 415.161 139.335C415.633 139.045 416.164 138.827 416.755 138.679C417.352 138.526 417.968 138.415 418.604 138.347C419.371 138.267 419.994 138.196 420.471 138.134C420.948 138.065 421.295 137.963 421.511 137.827C421.732 137.685 421.843 137.466 421.843 137.17V137.119C421.843 136.477 421.653 135.98 421.272 135.628C420.891 135.276 420.343 135.099 419.627 135.099C418.871 135.099 418.272 135.264 417.829 135.594C417.391 135.923 417.096 136.312 416.942 136.761L414.062 136.352C414.289 135.557 414.664 134.892 415.187 134.358C415.71 133.818 416.349 133.415 417.104 133.148C417.86 132.875 418.695 132.739 419.61 132.739C420.241 132.739 420.869 132.812 421.494 132.96C422.119 133.108 422.69 133.352 423.207 133.693C423.724 134.028 424.138 134.486 424.451 135.065C424.769 135.645 424.928 136.369 424.928 137.239V146H421.962V144.202H421.86C421.673 144.565 421.408 144.906 421.067 145.224C420.732 145.537 420.309 145.79 419.798 145.983C419.292 146.17 418.698 146.264 418.016 146.264ZM418.817 143.997C419.437 143.997 419.974 143.875 420.428 143.631C420.883 143.381 421.232 143.051 421.477 142.642C421.727 142.233 421.852 141.787 421.852 141.304V139.761C421.755 139.841 421.59 139.915 421.357 139.983C421.13 140.051 420.874 140.111 420.59 140.162C420.306 140.213 420.025 140.259 419.746 140.298C419.468 140.338 419.227 140.372 419.022 140.401C418.562 140.463 418.15 140.565 417.786 140.707C417.423 140.849 417.136 141.048 416.925 141.304C416.715 141.554 416.61 141.878 416.61 142.276C416.61 142.844 416.817 143.273 417.232 143.562C417.647 143.852 418.175 143.997 418.817 143.997ZM417.198 130.983C416.749 130.983 416.36 130.824 416.031 130.506C415.707 130.187 415.545 129.812 415.545 129.381C415.545 128.926 415.707 128.545 416.031 128.239C416.36 127.926 416.749 127.77 417.198 127.77C417.658 127.77 418.045 127.926 418.357 128.239C418.675 128.545 418.835 128.926 418.835 129.381C418.835 129.812 418.675 130.187 418.357 130.506C418.045 130.824 417.658 130.983 417.198 130.983ZM422.312 130.983C421.863 130.983 421.474 130.824 421.144 130.506C420.82 130.187 420.658 129.812 420.658 129.381C420.658 128.926 420.82 128.545 421.144 128.239C421.474 127.926 421.863 127.77 422.312 127.77C422.772 127.77 423.158 127.926 423.471 128.239C423.789 128.545 423.948 128.926 423.948 129.381C423.948 129.812 423.789 130.187 423.471 130.506C423.158 130.824 422.772 130.983 422.312 130.983ZM434.567 132.909V135.295H427.042V132.909H434.567ZM428.9 129.773H431.985V142.062C431.985 142.477 432.048 142.795 432.173 143.017C432.303 143.233 432.474 143.381 432.684 143.46C432.894 143.54 433.127 143.58 433.383 143.58C433.576 143.58 433.752 143.565 433.911 143.537C434.076 143.509 434.201 143.483 434.286 143.46L434.806 145.872C434.641 145.929 434.406 145.991 434.099 146.06C433.798 146.128 433.428 146.168 432.991 146.179C432.218 146.202 431.522 146.085 430.903 145.83C430.283 145.568 429.792 145.165 429.428 144.619C429.07 144.074 428.894 143.392 428.9 142.574V129.773ZM277.585 175V161.909H280.67V175H277.585ZM279.136 160.051C278.648 160.051 278.227 159.889 277.875 159.565C277.523 159.236 277.347 158.841 277.347 158.381C277.347 157.915 277.523 157.52 277.875 157.196C278.227 156.866 278.648 156.702 279.136 156.702C279.631 156.702 280.051 156.866 280.398 157.196C280.75 157.52 280.926 157.915 280.926 158.381C280.926 158.841 280.75 159.236 280.398 159.565C280.051 159.889 279.631 160.051 279.136 160.051ZM283.843 175V161.909H286.792V164.134H286.945C287.218 163.384 287.67 162.798 288.3 162.378C288.931 161.952 289.684 161.739 290.559 161.739C291.445 161.739 292.192 161.955 292.8 162.386C293.414 162.812 293.846 163.395 294.096 164.134H294.232C294.522 163.406 295.011 162.827 295.698 162.395C296.391 161.957 297.212 161.739 298.161 161.739C299.366 161.739 300.349 162.119 301.11 162.881C301.871 163.642 302.252 164.753 302.252 166.213V175H299.158V166.69C299.158 165.878 298.942 165.284 298.511 164.909C298.079 164.528 297.55 164.338 296.925 164.338C296.181 164.338 295.599 164.571 295.178 165.037C294.763 165.497 294.556 166.097 294.556 166.835V175H291.531V166.562C291.531 165.886 291.326 165.347 290.917 164.943C290.513 164.54 289.985 164.338 289.332 164.338C288.888 164.338 288.485 164.452 288.121 164.679C287.758 164.901 287.468 165.216 287.252 165.625C287.036 166.028 286.928 166.5 286.928 167.04V175H283.843ZM311.472 157.545H315.341L320.523 170.193H320.727L325.909 157.545H329.778V175H326.744V163.009H326.582L321.759 174.949H319.491L314.668 162.983H314.506V175H311.472V157.545ZM333.085 175V161.909H336.17V175H333.085ZM334.636 160.051C334.148 160.051 333.727 159.889 333.375 159.565C333.023 159.236 332.847 158.841 332.847 158.381C332.847 157.915 333.023 157.52 333.375 157.196C333.727 156.866 334.148 156.702 334.636 156.702C335.131 156.702 335.551 156.866 335.898 157.196C336.25 157.52 336.426 157.915 336.426 158.381C336.426 158.841 336.25 159.236 335.898 159.565C335.551 159.889 335.131 160.051 334.636 160.051ZM345.88 161.909V164.295H338.354V161.909H345.88ZM340.212 158.773H343.298V171.062C343.298 171.477 343.36 171.795 343.485 172.017C343.616 172.233 343.786 172.381 343.996 172.46C344.207 172.54 344.44 172.58 344.695 172.58C344.888 172.58 345.065 172.565 345.224 172.537C345.388 172.509 345.513 172.483 345.599 172.46L346.119 174.872C345.954 174.929 345.718 174.991 345.411 175.06C345.11 175.128 344.741 175.168 344.303 175.179C343.531 175.202 342.835 175.085 342.215 174.83C341.596 174.568 341.104 174.165 340.741 173.619C340.383 173.074 340.207 172.392 340.212 171.574V158.773ZM354.997 161.909V164.295H347.472V161.909H354.997ZM349.33 158.773H352.415V171.062C352.415 171.477 352.477 171.795 352.602 172.017C352.733 172.233 352.903 172.381 353.114 172.46C353.324 172.54 353.557 172.58 353.812 172.58C354.006 172.58 354.182 172.565 354.341 172.537C354.506 172.509 354.631 172.483 354.716 172.46L355.236 174.872C355.071 174.929 354.835 174.991 354.528 175.06C354.227 175.128 353.858 175.168 353.42 175.179C352.648 175.202 351.952 175.085 351.332 174.83C350.713 174.568 350.222 174.165 349.858 173.619C349.5 173.074 349.324 172.392 349.33 171.574V158.773ZM363.232 175.256C361.92 175.256 360.786 174.983 359.832 174.438C358.883 173.886 358.153 173.108 357.641 172.102C357.13 171.091 356.874 169.901 356.874 168.531C356.874 167.185 357.13 166.003 357.641 164.986C358.158 163.963 358.88 163.168 359.806 162.599C360.732 162.026 361.82 161.739 363.07 161.739C363.877 161.739 364.638 161.869 365.354 162.131C366.076 162.386 366.712 162.784 367.263 163.324C367.82 163.864 368.258 164.551 368.576 165.386C368.894 166.216 369.053 167.205 369.053 168.352V169.298H358.323V167.219H366.096C366.09 166.628 365.962 166.102 365.712 165.642C365.462 165.176 365.113 164.81 364.664 164.543C364.221 164.276 363.704 164.142 363.113 164.142C362.482 164.142 361.928 164.295 361.451 164.602C360.974 164.903 360.602 165.301 360.335 165.795C360.073 166.284 359.94 166.821 359.934 167.406V169.222C359.934 169.983 360.073 170.636 360.352 171.182C360.63 171.722 361.019 172.136 361.519 172.426C362.019 172.71 362.604 172.852 363.275 172.852C363.724 172.852 364.13 172.79 364.494 172.665C364.857 172.534 365.173 172.344 365.44 172.094C365.707 171.844 365.908 171.534 366.045 171.165L368.925 171.489C368.744 172.25 368.397 172.915 367.886 173.483C367.38 174.045 366.732 174.483 365.942 174.795C365.153 175.102 364.249 175.256 363.232 175.256ZM374.749 157.545V175H371.663V157.545H374.749ZM377.921 179.909V161.909H380.955V164.074H381.134C381.293 163.756 381.518 163.418 381.808 163.06C382.097 162.696 382.489 162.386 382.984 162.131C383.478 161.869 384.109 161.739 384.876 161.739C385.887 161.739 386.799 161.997 387.612 162.514C388.43 163.026 389.077 163.784 389.555 164.79C390.038 165.79 390.279 167.017 390.279 168.472C390.279 169.909 390.043 171.131 389.572 172.136C389.1 173.142 388.458 173.909 387.646 174.438C386.833 174.966 385.913 175.23 384.884 175.23C384.134 175.23 383.512 175.105 383.018 174.855C382.523 174.605 382.126 174.304 381.825 173.952C381.529 173.594 381.299 173.256 381.134 172.938H381.006V179.909H377.921ZM380.947 168.455C380.947 169.301 381.066 170.043 381.305 170.679C381.549 171.315 381.898 171.812 382.353 172.17C382.813 172.523 383.37 172.699 384.023 172.699C384.705 172.699 385.276 172.517 385.737 172.153C386.197 171.784 386.543 171.281 386.776 170.645C387.015 170.003 387.134 169.273 387.134 168.455C387.134 167.642 387.018 166.92 386.785 166.29C386.552 165.659 386.205 165.165 385.745 164.807C385.285 164.449 384.711 164.27 384.023 164.27C383.364 164.27 382.805 164.443 382.344 164.79C381.884 165.136 381.535 165.622 381.296 166.247C381.063 166.872 380.947 167.608 380.947 168.455ZM401.265 169.494V161.909H404.35V175H401.359V172.673H401.222C400.927 173.406 400.441 174.006 399.765 174.472C399.094 174.937 398.268 175.17 397.285 175.17C396.427 175.17 395.668 174.98 395.009 174.599C394.356 174.213 393.844 173.653 393.475 172.92C393.106 172.182 392.921 171.29 392.921 170.244V161.909H396.006V169.767C396.006 170.597 396.234 171.256 396.688 171.744C397.143 172.233 397.739 172.477 398.478 172.477C398.933 172.477 399.373 172.366 399.799 172.145C400.225 171.923 400.575 171.594 400.847 171.156C401.126 170.713 401.265 170.159 401.265 169.494ZM410.608 167.33V175H407.523V161.909H410.472V164.134H410.625C410.926 163.401 411.406 162.818 412.065 162.386C412.73 161.955 413.551 161.739 414.528 161.739C415.432 161.739 416.219 161.932 416.889 162.318C417.565 162.705 418.088 163.264 418.457 163.997C418.832 164.73 419.017 165.619 419.011 166.665V175H415.926V167.142C415.926 166.267 415.699 165.582 415.244 165.088C414.795 164.594 414.173 164.347 413.378 164.347C412.838 164.347 412.358 164.466 411.938 164.705C411.523 164.937 411.196 165.276 410.957 165.719C410.724 166.162 410.608 166.699 410.608 167.33ZM424.96 170.892L424.952 167.168H425.446L430.151 161.909H433.756L427.969 168.352H427.33L424.96 170.892ZM422.148 175V157.545H425.233V175H422.148ZM430.364 175L426.102 169.043L428.182 166.869L434.054 175H430.364ZM442.349 161.909V164.295H434.823V161.909H442.349ZM436.681 158.773H439.766V171.062C439.766 171.477 439.829 171.795 439.954 172.017C440.085 172.233 440.255 172.381 440.465 172.46C440.675 172.54 440.908 172.58 441.164 172.58C441.357 172.58 441.533 172.565 441.692 172.537C441.857 172.509 441.982 172.483 442.067 172.46L442.587 174.872C442.423 174.929 442.187 174.991 441.88 175.06C441.579 175.128 441.21 175.168 440.772 175.179C439.999 175.202 439.303 175.085 438.684 174.83C438.065 174.568 437.573 174.165 437.21 173.619C436.852 173.074 436.675 172.392 436.681 171.574V158.773Z" fill="#4D4D4D"/>
</svg>
