<svg width="300" height="200" viewBox="0 0 300 200" fill="none" xmlns="http://www.w3.org/2000/svg">
<path d="M113.172 72L78.3989 113.914V122.086L113.172 80.1718V72Z" fill="#999999"/>
<path d="M61 120.736V128.908L95.773 86.9695V78.8223L61 120.736Z" fill="#999999"/>
<path d="M209 101.423L208.73 101.349C203.945 100.147 201.761 99.6067 201.761 96.711C201.761 94.0607 203.871 92.3429 207.111 92.3429C210.325 92.3429 212.117 94.0117 212.362 97.3L212.387 97.5699H220.043V97.2755C220.043 96.073 220.043 93.2755 218.031 90.7233C215.037 86.9687 210.104 86.4043 207.405 86.4043C197.197 86.4043 193.565 92.1466 193.565 97.5209C193.565 102.134 195.724 105.545 206.424 108.22C210.743 109.251 212.706 109.717 212.706 112.539C212.706 115.263 210.276 117.03 206.497 117.03C203.945 117.03 202.203 116.22 201.319 114.601C200.583 113.275 200.583 111.729 200.583 110.895V110.527H192.779L192.485 110.552V110.846C192.534 114.134 192.657 122.92 206.08 122.92C214.939 122.92 220.951 118.355 221 111.558V111.361C220.927 104.294 214.301 102.699 209 101.423Z" fill="#999999"/>
<path d="M178.08 111.312L172.387 87.3369H163.822L157.908 111.361L152.976 87.3369H144.779L153.049 122.159H161.491L167.798 97.4228L173.515 122.159H182.203L190.865 87.3369H183.233L178.08 111.312Z" fill="#999999"/>
<path d="M136.828 90.478C133.982 88.3921 129.957 87.3369 124.828 87.3369H113.172V122.159H124.166C127.626 122.159 129.074 122.012 130.399 121.766C133.908 121.128 136.926 119.312 139.086 116.539C141.54 113.398 142.792 109.251 142.792 104.22C142.792 100.736 142.006 94.3062 136.828 90.478ZM131.577 113.717C129.466 115.828 126.693 115.999 123.822 115.999C123.209 115.999 122.399 115.975 121.712 115.95V93.4473C122.571 93.4228 123.331 93.3983 123.994 93.3983C126.227 93.3983 127.331 93.5946 128.534 93.9381C133.785 95.4105 134.571 101.03 134.571 104.245C134.595 106.184 134.301 110.993 131.577 113.717Z" fill="#999999"/>
</svg>
