<svg width="300" height="200" viewBox="0 0 300 200" fill="none" xmlns="http://www.w3.org/2000/svg">
<path d="M243.53 94.0836V92.8347H239.394V89.0569H243.342V87.8705H239.394V84.405H243.53V83.1561H237.89V94.0836H243.53ZM234.443 94.0836V92.8035H230.527V83.1561H229.023V94.0836H234.443ZM225.545 94.0836V92.8035H221.628V83.1561H220.124V94.0836H225.545ZM213.638 90.337H209.753L211.225 86.2782C211.413 85.7475 211.539 85.2792 211.695 84.8108H211.727C211.852 85.2792 212.009 85.7787 212.197 86.3095L213.638 90.337ZM216.615 94.0836L212.573 83.1561H210.912L206.901 94.0836H208.437L209.345 91.5234H214.014L214.923 94.0836H216.615ZM205.617 84.405V83.1561H197.815V84.405H200.979V94.0836H202.483V84.405H205.617ZM194.368 94.0836V92.8347H190.232V89.0569H194.18V87.8705H190.232V84.405H194.368V83.1561H188.728V94.0836H194.368ZM184.686 94.0836L183.025 83.1561H181.177L178.795 90.1497C178.545 90.8678 178.388 91.461 178.2 92.2103H178.169C177.981 91.4298 177.761 90.618 177.542 90.056L175.223 83.1873H173.375L171.777 94.1148H173.312L174.064 87.933C174.189 86.8714 174.315 85.9972 174.377 85.0918C174.565 85.8411 174.785 86.6529 175.067 87.5271L177.323 94.0836H178.921L181.271 87.0588C181.521 86.2782 181.678 85.5914 181.803 85.0918H181.835C181.897 85.7475 182.023 86.6217 182.179 87.7769L183.119 94.0836H184.686ZM168.612 94.0836V92.8035H164.695V83.1561H163.191V94.0836H168.612ZM159.024 94.0836V92.8347H154.888V89.0569H158.836V87.8705H154.888V84.405H159.024V83.1561H153.384V94.0836H159.024ZM147.775 88.6198C147.775 91.5859 145.958 92.8972 143.389 92.8972C142.95 92.8972 142.355 92.8659 141.947 92.8035V84.3737C142.355 84.3737 143.013 84.3113 143.577 84.3113C146.428 84.3425 147.775 85.8099 147.775 88.6198ZM149.342 88.495C149.342 84.7484 147.243 83.0937 143.733 83.0937C142.543 83.0937 141.289 83.1561 140.443 83.1561V94.0836C141.258 94.0836 142.104 94.146 143.232 94.146C146.835 94.146 149.342 92.2415 149.342 88.495ZM136.307 94.0836V92.8347H132.171V89.0569H136.119V87.8705H132.171V84.405H136.307V83.1561H130.667V94.0836H136.307ZM115.471 86.528C115.471 87.4646 114.781 88.0266 113.716 88.0266C113.465 88.0266 113.215 88.0266 113.089 87.9954V85.1855C113.246 85.1855 113.528 85.1543 113.779 85.1543C114.969 85.1543 115.471 85.685 115.471 86.528ZM118.855 94.0836L116.536 90.5868C116.285 90.1809 115.972 89.775 115.69 89.3691C117.163 89.0257 118.103 87.8081 118.103 86.3407C118.103 84.0303 116.536 83.0937 113.967 83.0937C112.651 83.0937 111.46 83.0937 110.551 83.1873V94.1148H113.089V89.8375H113.183L115.784 94.1148H118.855V94.0836ZM106.353 94.0836V91.9293H102.718V89.5253H106.165V87.4646H102.718V85.3104H106.353V83.1561H100.18V94.0836H106.353ZM95.9187 83.4683C94.9787 83.1873 93.882 83 92.754 83C88.8687 83 86.456 85.404 86.456 88.9008C86.456 92.2103 88.4613 94.2709 92.0333 94.2709C93.4433 94.2709 94.822 93.9899 95.8873 93.5528V88.2452H93.3493V91.8356C93.0673 91.9293 92.6913 91.9917 92.3153 91.9917C90.2787 91.9917 89.182 90.7429 89.182 88.7135C89.182 86.5905 90.5293 85.2792 92.5973 85.2792C93.6627 85.2792 94.634 85.4977 95.5113 85.8411L95.9187 83.4683ZM82.6333 83.1561H80.0953V94.0836H82.6333V83.1561ZM75.8967 94.0836V91.9293H72.262V89.5253H75.7087V87.4646H72.262V85.3104H75.8967V83.1561H69.724V94.0836H75.8967ZM65.4627 83.4683C64.5227 83.1873 63.426 83 62.298 83C58.4127 83 56 85.404 56 88.9008C56 92.2103 58.0053 94.2709 61.5773 94.2709C62.9873 94.2709 64.366 93.9899 65.4313 93.5528V88.2452H62.8933V91.8356C62.6113 91.9293 62.2353 91.9917 61.8593 91.9917C59.8227 91.9917 58.726 90.7429 58.726 88.7135C58.726 86.5905 60.0733 85.2792 62.1413 85.2792C63.2067 85.2792 64.178 85.4977 65.0553 85.8411L65.4627 83.4683ZM56.3133 102.357H244V103.231H56.3133V102.357ZM187.569 111.848H188.258V114.315C188.258 115.002 188.446 115.376 189.417 115.376C189.605 115.376 189.825 115.345 190.013 115.345V114.627C189.887 114.658 189.762 114.658 189.637 114.658C189.229 114.658 189.198 114.471 189.198 114.096V111.848H190.044V111.162H189.198V109.913H188.289V111.162H187.6V111.848H187.569ZM184.153 111.848H184.843V115.345H185.783V111.848H186.566V111.162H185.783V110.725C185.783 110.381 185.971 110.287 186.253 110.287C186.441 110.287 186.566 110.319 186.691 110.35V109.632C186.535 109.601 186.347 109.569 186.033 109.569C185.438 109.569 184.874 109.757 184.874 110.818V111.162H184.185V111.848H184.153ZM182.931 112.286C182.931 111.411 182.085 111.068 181.239 111.068C180.299 111.068 179.391 111.38 179.328 112.473H180.268C180.299 112.005 180.675 111.817 181.208 111.817C181.584 111.817 182.085 111.911 182.085 112.379C182.085 112.91 181.49 112.848 180.832 112.972C180.049 113.066 179.203 113.222 179.203 114.284C179.203 115.096 179.892 115.501 180.644 115.501C181.145 115.501 181.741 115.345 182.085 115.002C182.148 115.376 182.43 115.501 182.806 115.501C182.963 115.501 183.245 115.439 183.401 115.408V114.783C183.307 114.783 183.245 114.783 183.182 114.783C183.025 114.783 182.963 114.69 182.963 114.471V112.286H182.931ZM182.023 113.94C182.023 114.534 181.396 114.721 180.989 114.721C180.675 114.721 180.143 114.596 180.143 114.19C180.143 113.691 180.487 113.566 180.895 113.503C181.302 113.441 181.741 113.441 182.023 113.253V113.94ZM174.127 115.345H175.067V112.879C175.067 112.254 175.474 111.786 176.069 111.786C176.602 111.786 176.884 112.067 176.884 112.723V115.345H177.824V112.473C177.824 111.536 177.26 111.037 176.351 111.037C175.787 111.037 175.317 111.318 175.098 111.692V109.538H174.158V115.345H174.127ZM172.717 112.567C172.623 111.536 171.808 111.068 170.837 111.068C169.458 111.068 168.769 112.067 168.769 113.316C168.769 114.534 169.489 115.47 170.805 115.47C171.902 115.47 172.56 114.877 172.717 113.784H171.808C171.714 114.377 171.338 114.752 170.805 114.752C169.991 114.752 169.677 114.003 169.677 113.316C169.677 112.036 170.367 111.786 170.837 111.786C171.338 111.786 171.714 112.067 171.808 112.567H172.717ZM163.849 114.003C163.881 115.002 164.664 115.47 165.698 115.47C166.575 115.47 167.578 115.096 167.578 114.096C167.578 113.285 166.889 113.035 166.231 112.879C165.541 112.723 164.852 112.66 164.852 112.192C164.852 111.817 165.353 111.755 165.604 111.755C166.011 111.755 166.387 111.88 166.45 112.317H167.421C167.296 111.38 166.513 111.037 165.667 111.037C164.915 111.037 163.912 111.318 163.912 112.223C163.912 113.066 164.57 113.316 165.259 113.472C165.949 113.628 166.607 113.691 166.638 114.159C166.669 114.627 166.043 114.721 165.698 114.721C165.197 114.721 164.789 114.534 164.758 114.003H163.849ZM161.499 115.345H162.439V109.569H161.499V115.345ZM158.93 115.345H159.87V109.569H158.93V115.345ZM154.449 112.91C154.481 112.286 154.919 111.786 155.546 111.786C156.173 111.786 156.58 112.317 156.611 112.91H154.449ZM157.551 113.503C157.708 112.254 156.893 111.068 155.577 111.068C154.324 111.068 153.541 112.098 153.541 113.285C153.541 114.565 154.293 115.47 155.609 115.47C156.517 115.47 157.301 114.971 157.52 114.034H156.643C156.486 114.502 156.141 114.721 155.609 114.721C154.825 114.721 154.481 114.128 154.481 113.472H157.551V113.503ZM148.621 114.003C148.621 115.002 149.436 115.47 150.47 115.47C151.347 115.47 152.35 115.096 152.35 114.096C152.35 113.285 151.661 113.035 151.003 112.879C150.313 112.723 149.624 112.66 149.624 112.192C149.624 111.817 150.125 111.755 150.376 111.755C150.783 111.755 151.159 111.88 151.222 112.317H152.193C152.068 111.38 151.285 111.037 150.439 111.037C149.687 111.037 148.684 111.318 148.684 112.223C148.684 113.066 149.342 113.316 150.031 113.472C150.721 113.628 151.379 113.691 151.41 114.159C151.441 114.627 150.815 114.721 150.47 114.721C149.969 114.721 149.561 114.534 149.53 114.003H148.621ZM144.391 112.91C144.423 112.286 144.861 111.786 145.488 111.786C146.115 111.786 146.522 112.317 146.553 112.91H144.391ZM147.462 113.503C147.619 112.254 146.804 111.068 145.488 111.068C144.235 111.068 143.451 112.098 143.451 113.285C143.451 114.565 144.203 115.47 145.519 115.47C146.428 115.47 147.211 114.971 147.431 114.034H146.553C146.397 114.502 146.052 114.721 145.519 114.721C144.736 114.721 144.391 114.128 144.391 113.472H147.462V113.503ZM142.073 111.162H141.133V111.724C140.882 111.255 140.412 111.037 139.879 111.037C138.689 111.037 137.968 112.005 137.968 113.129C137.968 114.315 138.532 115.345 139.848 115.345C140.381 115.345 140.851 115.064 141.101 114.596V115.252C141.101 115.938 140.757 116.313 140.036 116.313C139.566 116.313 139.127 116.219 139.033 115.689H138.093C138.187 116.657 139.127 117 139.973 117C141.289 117 142.041 116.376 142.041 115.127V111.162H142.073ZM140.005 114.627C139.221 114.627 138.908 113.94 138.908 113.253C138.908 112.567 139.19 111.786 140.005 111.786C140.819 111.786 141.133 112.442 141.133 113.16C141.133 113.878 140.819 114.627 140.005 114.627ZM132.892 115.345H133.832V112.879C133.832 112.254 134.239 111.786 134.835 111.786C135.367 111.786 135.649 112.067 135.649 112.723V115.345H136.589V112.473C136.589 111.536 136.025 111.037 135.117 111.037C134.553 111.037 134.083 111.318 133.801 111.786V111.755V111.13H132.923V115.345H132.892ZM128.443 112.91C128.474 112.286 128.913 111.786 129.539 111.786C130.166 111.786 130.573 112.317 130.605 112.91H128.443ZM131.513 113.503C131.67 112.254 130.855 111.068 129.539 111.068C128.286 111.068 127.503 112.098 127.503 113.285C127.503 114.565 128.255 115.47 129.571 115.47C130.479 115.47 131.263 114.971 131.482 114.034H130.605C130.448 114.502 130.103 114.721 129.571 114.721C128.787 114.721 128.443 114.128 128.443 113.472H131.513V113.503ZM125.153 110.444H126.093V109.569H125.153V110.444ZM125.153 115.345H126.093V111.162H125.153V115.345ZM121.361 111.848H122.051V114.315C122.051 115.002 122.239 115.376 123.21 115.376C123.398 115.376 123.617 115.345 123.805 115.345V114.627C123.68 114.658 123.555 114.658 123.429 114.658C123.022 114.658 122.991 114.471 122.991 114.096V111.848H123.837V111.162H122.991V109.913H122.051V111.162H121.361V111.848ZM116.599 115.345H117.539V113.847L118.103 113.316L119.387 115.345H120.515L118.761 112.691L120.359 111.162H119.231L117.57 112.848V109.569H116.63V115.345H116.599ZM109.893 115.345H110.927L111.46 113.815H113.779L114.311 115.345H115.408L113.183 109.569H112.118L109.893 115.345ZM112.619 110.568L113.497 113.066H111.742L112.619 110.568Z" fill="#989898"/>
</svg>
