<svg width="300" height="200" viewBox="0 0 300 200" fill="none" xmlns="http://www.w3.org/2000/svg">
<g clip-path="url(#clip0_1412_662)">
<path d="M120.828 129.575V123.231C124.79 123.231 126.25 123.023 126.98 127.911H127.397V122.503H116.449V123.231H118.326V137.272H116.241V138H127.501V132.279H126.98C126.458 136.648 125.312 137.272 122.184 137.272H120.724V130.511H121.558C122.914 130.511 123.748 131.343 124.06 133.736H124.582V126.663H124.06C124.06 126.663 123.956 129.679 121.558 129.679H120.828V129.575Z" fill="#C5281C"/>
<path d="M116.345 129.783H110.194V130.511H112.279V135.504C111.966 136.752 109.985 137.272 109.464 137.272C105.502 137.272 105.815 131.551 105.815 129.991C105.815 128.639 105.711 122.711 109.464 122.711C112.175 122.711 113.53 125.311 114.052 127.703H114.469C114.469 126.767 114.469 122.087 114.469 122.087C114.469 122.087 112.592 123.439 112.592 123.335C112.592 123.335 111.758 122.087 109.36 122.087C104.772 122.087 103 126.663 103 129.887C103 132.8 104.355 137.896 109.36 137.896C110.924 137.896 111.966 137.064 112.592 136.232L114.573 137.792V130.407H116.241V129.783H116.345Z" fill="#C5281C"/>
<path d="M188.18 132.175C187.659 136.544 186.512 137.168 183.384 137.168H183.176V123.231H185.157V122.503H178.693V123.231H180.674V137.272H179.11L173.375 122.087H172.541C172.541 122.087 167.745 135.816 167.745 135.92C167.745 135.92 167.433 137.064 166.599 137.272C165.869 137.272 165.973 136.96 165.973 136.752V134.048C165.973 133.32 165.869 131.759 165.243 131.031C164.409 130.199 163.054 130.199 163.054 130.095C163.054 130.095 166.599 129.367 166.599 126.039C166.599 123.647 164.93 122.503 162.22 122.399H154.504V123.127H156.485V137.168H154.504V137.896H160.864V137.168H158.883V130.407H161.49C166.077 130.823 160.656 137.896 166.703 137.896H170.456V137.168C170.248 137.168 168.892 137.168 168.788 136.232C168.684 135.504 169.726 133.008 169.726 133.008H174.939C174.939 133.008 176.503 137.168 176.608 137.168H174.835V137.896H188.91V132.175H188.18ZM161.386 129.679H158.883V123.231H162.115C163.992 123.543 164.096 125.727 164.096 126.351C164.096 128.015 163.367 129.679 161.386 129.679ZM170.143 132.383L172.437 125.727L174.835 132.383H170.143Z" fill="#C5281C"/>
<path d="M146.789 123.127C150.751 123.127 152.315 122.919 152.941 127.808H153.358V122.399H137.51V123.127H137.927C138.448 123.127 139.804 123.127 139.908 124.376V133.32L132.506 122.399H128.439V123.127H129.065C129.899 123.127 130.942 123.127 131.046 124.376V135.816C131.046 136.96 129.378 137.376 128.648 137.376V137.896H134.174V137.376C133.444 137.376 131.776 136.96 131.776 135.816V125.728C134.695 129.888 140.221 137.896 140.325 137.896H140.638V124.376C140.742 123.231 141.993 123.127 142.619 123.127H144.391V137.168H142.306V137.896H153.566V132.176H153.045C152.524 136.544 151.377 137.168 148.249 137.168H146.789V130.408H147.623C148.979 130.408 149.813 131.24 150.126 133.632H150.647V126.56H150.126C150.126 126.56 150.021 129.576 147.623 129.576H146.893V123.127H146.789Z" fill="#C5281C"/>
<path d="M189.536 122.399V123.231H191.517V137.168H189.536V137.896H195.896V137.168H193.811V123.231H195.896V122.399H189.536Z" fill="#C5281C"/>
<path d="M179.11 112.831L181.091 112.103C183.906 110.959 184.323 110.23 184.114 108.358V100.87C186.2 106.278 188.285 110.022 192.351 110.022C192.872 110.022 193.498 109.918 194.123 109.814L195.687 109.502L194.54 108.254C193.811 107.526 193.498 106.902 193.081 106.174C192.872 105.862 192.768 105.55 192.559 105.238C191.621 103.678 189.327 103.158 187.451 103.99C186.617 102.326 185.782 100.142 184.74 97.4378L184.531 96.9177C184.323 96.5017 184.219 96.0857 184.01 95.6697V95.5657C183.385 94.1096 182.655 92.7575 181.925 91.4054C181.195 90.1574 180.465 89.1173 179.631 88.1812C177.442 85.6851 174.627 84.125 171.186 83.501C168.788 83.085 167.12 82.981 164.93 82.877C164.513 82.877 163.992 82.877 163.575 82.7729C162.637 82.6689 160.656 82.5649 158.675 82.3569C157.319 82.2529 156.068 82.1489 155.026 82.0449C155.13 81.7329 155.13 81.4209 155.13 81.1089C155.13 80.6928 155.13 80.2768 155.026 79.9648H168.788C172.333 79.9648 174.939 78.4047 176.399 75.2845C179.944 75.2845 182.446 73.6204 184.01 70.6043H184.531C188.18 70.6043 190.787 68.9402 192.351 65.612L192.872 64.676H146.372C143.349 64.676 140.742 66.6521 139.7 69.7722V69.8762C138.865 67.6921 137.51 65.82 135.633 64.676C133.027 63.1159 130.108 62.5958 127.814 63.3239C127.084 63.5319 126.25 63.8439 125.624 64.2599C125.103 64.676 124.269 65.196 123.748 65.924C123.122 66.6521 122.601 67.5881 122.184 68.4202C121.871 68.6282 121.663 68.8362 121.558 69.0442L121.037 70.0842V70.1883C120.411 71.6443 119.577 72.6844 118.952 73.5164C118.326 74.2445 118.326 74.9725 118.326 75.3885C118.43 75.9086 118.639 76.3246 118.952 76.6366C118.743 76.9486 118.639 77.3647 118.639 77.6767C118.639 78.9247 119.682 79.8608 121.037 79.8608C121.975 79.8608 122.809 79.4448 123.643 78.8207C123.956 78.6127 124.895 77.9887 125.207 77.9887C125.624 77.9887 125.937 78.3007 125.937 78.7167C125.937 79.7568 124.686 80.2768 123.748 80.2768L121.871 80.4848C120.516 80.5888 119.89 81.3169 119.89 81.9409C119.89 82.5649 120.203 82.981 120.411 83.189L120.516 83.293L121.037 83.709L118.848 87.0372C117.388 85.6851 115.72 84.9571 114.26 84.8531C113.322 84.8531 112.488 85.0611 111.862 85.6851C111.654 85.8931 111.549 85.9971 111.445 86.2051C109.881 86.2051 108.63 87.0372 108.004 87.9732C107.275 89.0133 107.587 90.7814 108.422 92.1335L103.208 93.5895V117.719H196V112.935H179.11V112.831ZM191.1 106.278C191.308 106.59 191.413 106.902 191.621 107.11C191.83 107.422 192.038 107.734 192.247 108.15C190.787 108.046 189.64 107.214 188.702 105.758C189.536 105.342 190.683 105.654 191.1 106.278ZM170.978 85.6851C174.001 86.2051 176.399 87.5572 178.276 89.6373C178.693 90.0534 179.006 90.5734 179.423 91.0934C174.418 90.4694 172.646 89.7413 169.831 85.4771C170.248 85.4771 170.561 85.5811 170.978 85.6851ZM168.788 78.4047H159.3C160.135 77.6767 160.76 76.7406 161.281 75.7006H174.105C173.063 77.5727 171.29 78.4047 168.788 78.4047ZM176.295 73.8285H166.807C167.641 73.1004 168.371 72.1644 168.892 71.0203H181.716C180.674 72.8924 178.901 73.8285 176.295 73.8285ZM177.025 66.6521H189.744C188.493 68.3162 186.825 69.1482 184.427 69.1482H174.939C175.774 68.4202 176.503 67.5881 177.025 66.6521ZM125.312 67.0681C125.624 66.6521 126.146 66.236 126.667 65.82C127.084 65.508 127.71 65.196 128.335 65.092C129.274 64.884 130.316 64.884 131.359 65.092L127.918 67.1721C127.501 67.1721 127.084 67.0681 126.667 67.0681C126.041 67.0681 125.52 67.0681 125.103 67.1721C125.207 67.1721 125.207 67.1721 125.312 67.0681ZM121.35 82.0449C121.35 81.9409 121.454 81.8369 121.558 81.8369L123.226 81.9409C125.207 81.8369 127.293 81.0049 127.501 78.9247C127.501 77.4687 126.458 76.1166 125.103 76.1166C124.373 76.1166 123.435 76.6366 122.497 77.2606C121.871 77.6767 121.35 77.9887 121.037 77.9887C120.828 77.9887 120.62 77.7807 120.62 77.6767C120.62 77.6767 120.62 77.6767 120.62 77.5727L121.663 76.1166L120.724 75.4925C120.516 75.3885 120.203 75.0765 120.203 74.9725C120.203 74.8685 120.307 74.7645 120.307 74.6605C120.724 74.2445 121.141 73.7245 121.558 72.9964C121.871 72.5804 121.975 72.3724 122.392 72.3724C122.809 72.3724 123.226 72.6844 123.226 73.2044C123.226 73.5164 123.539 73.7245 123.956 73.7245C124.373 73.7245 124.582 73.4124 124.79 73.2044C124.79 73.2044 125.729 72.3724 125.207 71.9564C124.686 71.5403 122.392 72.4764 123.018 70.3963L123.226 70.0842C123.435 69.7722 124.582 68.9402 126.771 68.9402C127.188 68.9402 127.605 68.9402 128.127 69.0442H128.439L133.235 66.132C133.235 66.236 133.34 66.34 133.34 66.34C133.548 67.7961 132.714 69.4602 131.254 70.2923L130.629 70.6043L131.046 72.7884C129.795 73.2044 128.961 74.1405 128.961 75.2845C128.961 75.7006 129.065 76.2206 129.169 76.7406C129.274 77.4687 129.482 78.1967 129.482 78.9247C129.482 81.2129 126.354 82.6689 123.748 82.5649H123.643C123.539 82.5649 121.871 82.4609 121.454 82.1489C121.35 82.2529 121.35 82.1489 121.35 82.0449ZM109.464 89.1173C109.881 88.4933 110.715 88.0772 111.758 88.1812L112.592 88.2853L112.905 87.5572C113.009 87.3492 113.113 87.1412 113.217 87.0372C113.426 86.8292 113.843 86.7252 114.26 86.7252C115.407 86.7252 116.867 87.5572 118.013 88.8053C118.43 89.2213 118.848 89.8453 119.16 90.3654C119.265 90.4694 119.265 90.5734 119.369 90.6774C119.473 90.7814 119.577 90.9894 119.577 90.9894C119.577 91.0934 120.203 91.9255 120.203 92.0295C120.62 91.5094 121.037 90.8854 121.35 90.3654V90.2614C121.245 90.0534 121.037 89.7413 120.933 89.5333L120.828 89.4293C120.828 89.4293 120.724 89.3253 120.724 89.2213C120.62 89.0133 120.411 88.7013 120.307 88.5973L122.809 84.6451C123.435 84.7491 123.956 84.7491 124.269 84.7491H124.373C127.918 84.7491 131.567 82.6689 131.567 79.3408V79.2368C131.567 78.3007 131.359 77.4687 131.254 76.7406C131.15 76.2206 131.046 75.8046 131.046 75.5966C131.046 75.1805 131.567 74.7645 132.297 74.7645H133.444L132.923 71.8523C134.487 70.7083 135.529 68.7322 135.425 66.9641C137.197 68.3162 138.344 70.6043 138.553 72.9964C138.657 73.7245 138.448 74.6605 138.24 75.7006L138.136 76.1166C137.719 77.7807 137.093 79.5488 136.78 80.3808L136.467 81.1089L137.197 81.5249C138.448 82.2529 139.282 82.773 139.282 84.437C139.282 86.4132 137.51 87.8692 135.842 88.1812L133.444 88.5973L135.425 89.9493C136.05 90.3654 136.467 91.0934 136.467 91.8215C136.467 93.0695 135.425 94.0056 134.174 94.0056H133.444L133.235 94.6296C132.506 96.9177 131.776 98.0618 129.274 98.3738C129.274 97.6458 129.274 96.9177 129.274 95.9817C129.274 95.7737 129.274 95.1496 129.274 94.9416L129.169 92.7575L127.605 94.3176C127.084 94.8376 126.146 95.2536 125.103 95.4617V93.5895L114.156 90.6774L110.298 91.7174C109.464 90.8854 109.256 89.4293 109.464 89.1173ZM106.336 112.831L114.26 110.75L122.184 112.831H106.336ZM123.226 111.167L114.156 108.774L105.085 111.167V95.0456L114.156 92.6535L123.226 95.0456V111.167ZM127.501 108.046C126.667 109.19 126.563 110.855 127.188 112.831H125.207V97.4378C125.937 97.3338 126.667 97.1257 127.397 96.8137C127.397 97.4378 127.293 98.0618 127.188 98.6858C127.188 98.8938 127.084 98.9978 127.084 99.2059L126.876 100.35H128.022C129.691 100.35 130.942 100.038 131.984 99.6219V106.07C131.984 106.278 131.88 106.382 131.671 106.382H131.359C129.691 106.278 128.231 106.902 127.501 108.046ZM148.353 108.462C147.623 109.294 146.998 110.646 147.415 112.831H135.633C136.885 112.727 137.823 112.415 138.448 111.791C139.178 110.959 139.282 109.918 139.282 109.086C139.282 108.982 139.387 108.774 140.012 108.462L141.055 108.046L140.429 107.11C139.387 105.55 139.908 102.222 140.221 100.35H140.325C144.287 100.35 146.893 99.5179 149.604 98.6858C150.334 98.4778 151.064 98.2698 151.794 97.9578C151.794 97.9578 152.628 97.7498 153.67 97.4378L157.528 103.782V103.886C157.945 104.406 157.945 104.822 157.215 105.55L155.339 107.63L152.211 107.006C150.855 106.798 149.291 107.422 148.353 108.462ZM149.396 112.831C149.083 111.479 149.187 110.438 149.813 109.71C150.438 108.982 151.272 108.878 152.002 108.878L155.651 109.502H155.756H156.277L158.883 106.694C159.3 106.174 160.656 104.614 159.3 102.638L155.86 97.0217C156.381 96.9177 157.007 96.9177 157.528 96.9177C157.528 96.9177 159.3 96.9177 161.177 97.9578C161.386 98.4778 161.803 99.2059 162.115 100.038C162.845 101.494 163.784 103.366 163.992 104.094C164.096 104.302 164.305 105.03 163.471 105.966L156.902 112.935H149.396V112.831ZM171.916 112.831H159.405L164.722 107.214C165.765 106.07 166.182 104.718 165.66 103.47C165.452 102.742 164.722 101.286 163.992 99.7259C166.077 100.662 169.309 101.598 175.878 102.118C176.712 102.222 176.92 102.43 177.025 103.158L177.337 105.966L173.897 106.694C172.75 106.902 171.812 107.63 171.395 108.774C170.978 110.022 171.186 111.479 171.916 112.831ZM173.271 109.502C173.48 108.982 173.793 108.67 174.314 108.566L179.423 107.422L179.006 102.846V102.742C178.901 102.118 178.484 100.35 176.086 100.142C166.911 99.4139 164.826 98.0618 162.532 96.6057L162.428 96.5017C160.03 94.9416 157.632 94.9416 157.424 94.9416C154.817 94.9416 151.585 95.9817 151.272 96.0857C150.438 96.2937 149.708 96.6057 148.979 96.8137C146.059 97.7498 143.661 98.5818 139.491 98.3738H138.761L138.553 99.1019C138.448 99.6219 137.197 104.302 138.344 107.214C137.302 108.046 137.302 108.878 137.302 109.086C137.302 110.126 137.093 110.334 136.989 110.438C136.467 110.959 134.904 110.959 133.548 110.959H133.027L132.714 111.375C131.88 112.519 130.108 112.831 128.961 112.519C128.439 110.959 128.439 109.814 128.961 109.086C129.586 108.254 130.733 108.15 131.254 108.15H131.567C132.818 108.15 133.757 107.11 133.757 105.966V97.7498C134.174 97.2297 134.382 96.5017 134.695 95.7737C136.676 95.4617 138.24 93.7976 138.24 91.7174C138.24 90.8854 138.031 90.1574 137.614 89.5333C139.491 88.5973 141.055 86.8292 141.055 84.437C141.055 82.0449 139.804 80.9008 138.657 80.2768C138.97 79.3408 139.491 77.7807 139.908 76.1166L141.472 70.3963C142.202 68.1081 144.078 66.6521 146.268 66.6521H174.627C173.376 68.3162 171.707 69.1482 169.309 69.1482H152.315L151.377 71.0203H166.807C165.556 72.8924 163.784 73.8285 161.281 73.8285H150.126L149.187 75.7006H159.092C157.841 77.5727 156.173 78.4047 153.67 78.4047H147.623L146.685 80.2768H153.045C153.149 80.3808 153.253 80.6928 153.253 81.4209C153.253 82.6689 152.211 83.605 150.96 83.605C150.543 83.605 150.126 83.501 149.5 83.189C149.187 83.085 148.979 82.981 148.666 82.877L147.206 84.229C147.519 84.333 147.728 84.437 148.04 84.541C149.291 85.0611 150.021 85.3731 150.96 85.3731C152.106 85.3731 153.149 84.8531 153.983 84.125C155.026 84.229 156.798 84.333 158.571 84.437C160.656 84.6451 162.532 84.7491 163.575 84.8531C164.096 84.8531 164.513 84.8531 165.035 84.9571C165.869 84.9571 166.703 85.0611 167.433 85.0611C171.29 91.3014 173.271 92.1335 180.778 93.0695C181.299 94.0056 181.821 95.0456 182.238 96.0857V108.254V108.358C182.238 108.878 182.238 109.086 182.238 109.19C181.925 109.502 180.778 110.022 180.465 110.126L174.105 112.727C173.271 111.583 172.958 110.438 173.271 109.502Z" fill="#C5281C"/>
<path d="M115.198 97.9576L121.246 99.5176V97.5415L115.198 95.9814V97.9576Z" fill="#C5281C"/>
<path d="M113.217 95.9814L107.17 97.5415V99.5176L113.217 97.9576V95.9814Z" fill="#C5281C"/>
<path d="M113.217 99.9336L107.17 101.494V103.47L113.217 101.91V99.9336Z" fill="#C5281C"/>
<path d="M115.198 101.91L121.246 103.47V101.494L115.198 99.9336V101.91Z" fill="#C5281C"/>
<path d="M115.198 105.862L121.246 107.422V105.446L115.198 103.886V105.862Z" fill="#C5281C"/>
<path d="M113.217 103.886L107.17 105.446V107.422L113.217 105.862V103.886Z" fill="#C5281C"/>
</g>
<defs>
<clipPath id="clip0_1412_662">
<rect width="93" height="75" fill="white" transform="translate(103 63)"/>
</clipPath>
</defs>
</svg>
