<svg width="300" height="200" viewBox="0 0 300 200" fill="none" xmlns="http://www.w3.org/2000/svg">
<g clip-path="url(#clip0_1412_600)">
<path d="M92.2271 108.305H88.9615V99.7633H83.1026V104.771C83.1026 106.734 81.5658 108.305 79.6448 108.305V92.4979C79.6448 90.6324 81.1816 89.0615 83.1026 89.0615V97.2106H88.9615V92.3997C88.9615 90.5343 90.4022 89.0615 92.2271 89.0615V108.305ZM101.832 93.9706H105.002L99.3347 111.84C98.9505 113.018 97.894 113.902 96.4532 113.902H95.3007L97.5098 107.422L93.0916 93.9706H96.6453L99.1426 103.396L101.832 93.9706ZM116.719 101.138C116.719 105.556 114.318 108.502 110.764 108.502C109.996 108.502 109.42 108.403 108.939 108.305V110.76C108.939 112.527 107.499 114 105.866 114H105.674V95.0506L105.77 94.9524C107.019 94.2652 108.555 93.9706 110.476 93.9706C114.318 93.9706 116.719 96.7197 116.719 101.138ZM113.358 101.236C113.358 97.7997 112.397 96.2288 110.284 96.2288C109.708 96.2288 109.324 96.327 108.843 96.4252V106.145C109.132 106.243 109.516 106.342 109.996 106.342C112.781 106.342 113.358 103.494 113.358 101.236ZM129.59 101.236C129.59 105.654 127.285 108.502 123.539 108.502C119.793 108.502 117.488 105.654 117.488 101.236C117.488 96.8179 119.793 93.9706 123.539 93.9706C127.285 93.9706 129.59 96.8179 129.59 101.236ZM126.516 101.236C126.516 99.7633 126.132 96.327 123.539 96.327C120.849 96.327 120.657 100.156 120.657 101.236C120.657 102.316 120.849 106.047 123.539 106.047C126.324 106.047 126.516 102.316 126.516 101.236ZM142.748 89.0615L137.562 106.047C137.178 107.323 135.929 108.305 134.488 108.305H133.624L127.669 89.0615H131.223L135.353 103.985L138.906 91.3197C139.291 89.9452 140.635 89.0615 142.076 89.0615H142.748ZM152.737 101.334L144.381 102.512C144.669 104.869 145.822 106.047 147.935 106.047C150.24 106.047 151.393 105.262 152.257 104.672V107.52C151.393 108.011 149.856 108.502 147.551 108.502C143.517 108.502 141.02 105.654 141.02 101.236C141.02 96.9161 143.229 94.0688 146.975 94.0688C150.624 94.0688 152.641 96.5233 152.641 100.843V101.334H152.737ZM149.76 99.3706C149.664 96.5233 147.935 96.2288 146.975 96.2288H146.878C145.054 96.327 144.093 97.6033 144.093 100.156L149.76 99.3706ZM158.596 93.9706C159.173 93.9706 159.845 94.0688 160.421 94.167V96.9161C159.365 96.0324 157.732 96.2288 157.06 96.7197V105.065C157.06 106.832 155.619 108.305 153.89 108.305H153.698V95.1488C155.139 94.4615 156.483 93.9706 158.596 93.9706ZM171.563 101.334L163.207 102.512C163.495 104.869 164.647 106.047 166.76 106.047C169.066 106.047 170.218 105.262 171.083 104.672V107.52C170.218 108.011 168.681 108.502 166.376 108.502C162.342 108.502 159.845 105.654 159.845 101.236C159.845 96.9161 162.054 94.0688 165.8 94.0688C169.45 94.0688 171.467 96.5233 171.467 100.843V101.334H171.563ZM168.681 99.3706C168.585 96.5233 166.856 96.2288 165.896 96.2288H165.8C163.975 96.327 163.015 97.6033 163.015 100.156L168.681 99.3706ZM175.981 90.7306C175.981 91.6143 175.117 92.3997 174.156 92.3997C173.196 92.3997 172.331 91.6143 172.331 90.7306C172.331 89.7488 173.1 89.0615 174.156 89.0615C175.117 89.0615 175.981 89.847 175.981 90.7306ZM175.789 93.9706V108.207H175.597C173.868 108.207 172.427 106.734 172.427 104.967V93.9706H175.789ZM182.608 93.9706C187.315 93.9706 187.987 96.6215 187.987 98.2906V108.305H187.795C186.066 108.305 184.625 106.832 184.625 105.065V98.3888C184.625 97.407 184.241 96.327 182.416 96.327C181.552 96.327 181.072 96.4252 180.495 96.6215C180.495 96.8179 180.495 108.305 180.495 108.305H177.134V95.0506C178.67 94.4615 180.976 93.9706 182.608 93.9706ZM197.592 104.28C197.592 106.538 195.671 108.502 192.693 108.502C191.157 108.502 189.812 108.011 188.947 107.52V104.672C189.908 105.851 191.157 106.145 192.309 106.145C193.558 106.145 194.422 105.36 194.422 104.28C194.422 103.102 193.846 102.611 192.405 102.022C189.812 101.04 189.236 99.4688 189.236 98.0943C189.236 95.9343 190.965 94.0688 193.558 94.0688C195.095 94.0688 195.863 94.4615 196.823 95.0506V97.6033C195.959 96.5233 195.191 96.2288 194.23 96.2288C192.982 96.2288 192.309 97.0143 192.309 97.9961C192.309 99.0761 193.174 99.6652 194.326 100.156C196.919 101.236 197.592 102.611 197.592 104.28ZM201.914 89.0615V94.8543C202.586 94.6579 203.259 94.5597 204.027 94.5597C207.581 94.5597 209.982 97.2106 209.982 101.727C209.982 106.047 207.773 108.502 203.835 108.502H203.259C202.202 108.502 199.705 108.305 198.744 108.109V92.3015C198.744 90.5343 200.185 89.0615 201.914 89.0615ZM201.914 106.342C202.202 106.44 202.97 106.44 203.451 106.44C205.756 106.44 206.812 104.672 206.812 101.531C206.812 98.5852 205.852 96.327 203.163 96.327C202.682 96.327 202.202 96.4252 201.818 96.5233L201.914 106.342ZM218.05 99.2724V98.2906C218.05 96.5233 216.994 96.0324 215.361 96.0324C214.016 96.0324 212.671 96.5233 211.231 97.3088V95.0506C212.095 94.6579 213.728 93.9706 215.937 93.9706C218.722 93.9706 221.124 95.4433 221.124 98.9779V108.011C220.163 108.207 218.05 108.403 216.801 108.403H216.129C212.479 108.403 210.558 106.734 210.558 104.182C210.366 100.549 213.824 99.6652 218.05 99.2724ZM218.05 100.843C215.169 101.138 213.344 101.727 213.344 104.083C213.344 105.851 214.4 106.636 216.225 106.636C216.897 106.636 217.762 106.538 218.05 106.538V100.843ZM227.847 93.9706C232.553 93.9706 233.226 96.6215 233.226 98.2906V108.305H233.034C231.305 108.305 229.864 106.832 229.864 105.065V98.3888C229.864 97.407 229.48 96.327 227.655 96.327C226.79 96.327 226.31 96.4252 225.734 96.6215C225.734 96.8179 225.734 108.305 225.734 108.305H222.372V95.0506C223.909 94.4615 226.214 93.9706 227.847 93.9706ZM238.124 104.967C238.124 106.832 236.683 108.305 234.858 108.305V92.3997C234.858 90.5343 236.299 89.0615 238.124 89.0615V100.647L242.254 94.3633H245.328L241.102 100.745L246.096 108.305H242.638L238.124 101.236V104.967Z" fill="#1A1A18"/>
<path d="M65.4297 92.8909C65.4297 92.7927 65.4297 92.7927 65.4297 92.8909C65.6218 92.5964 65.5258 92.4 65.4297 92.3018C65.3337 92.2036 63.6048 91.1236 63.6048 91.1236C63.5088 91.1236 63.4127 90.9273 63.4127 90.7309C63.4127 90.4364 63.6048 90.24 63.893 90.1418C64.9495 89.8473 68.7914 89.6509 70.1361 89.6509C70.6163 89.6509 71.3847 89.6509 72.057 89.6509C70.1361 87.9818 67.6388 87 64.9495 87C58.8985 87.0982 54 92.1055 54 98.2909C54 101.04 54.9605 103.495 56.4972 105.458C57.8419 103.396 61.2997 98.4873 61.972 97.4073C62.8364 96.2291 64.7574 93.6764 65.1416 93.1855L65.4297 92.8909ZM58.2261 107.127C60.051 108.6 62.3562 109.484 64.8534 109.484C70.9045 109.484 75.8029 104.476 75.8029 98.2909C75.8029 96.4255 75.3227 94.6582 74.5543 93.0873C74.9385 92.6945 75.3227 92.1055 75.0345 91.4182C74.9385 91.2218 74.5543 90.7309 74.4582 90.5345C74.7464 91.32 74.1701 91.9091 73.7859 92.2036C73.5938 92.4 70.8084 95.0509 67.5428 97.9964C64.6613 100.549 61.4917 103.2 59.5708 104.575C56.9775 106.538 56.4012 106.833 56.4012 106.833C56.3052 106.833 56.2091 106.931 56.1131 106.931C55.921 106.931 55.8249 106.833 55.7289 106.735V106.833C56.017 107.324 56.4973 107.815 56.7854 107.815C56.8814 107.815 56.9775 107.815 57.0735 107.716C57.2656 107.815 57.4577 107.716 58.2261 107.127Z" fill="#E3000F"/>
<path d="M65.4297 92.7932C65.6218 92.4986 65.5258 92.4005 65.4297 92.3023C65.3337 92.2041 63.6048 91.1241 63.6048 91.1241C63.5088 91.1241 63.4127 90.9277 63.4127 90.7314C63.4127 90.4368 63.6048 90.2405 63.893 90.1423C64.9495 89.8477 68.7914 89.6514 70.1361 89.6514C70.7124 89.6514 71.961 89.6514 72.7294 89.7495C73.5938 89.8477 74.2662 90.0441 74.4582 90.4368C74.7464 91.3205 74.2661 91.8114 73.882 92.2041C73.6899 92.4005 70.9045 95.0514 67.6388 97.9968C64.7574 100.55 61.5878 103.2 59.6668 104.575C57.0736 106.539 56.4973 106.833 56.4973 106.833C56.4012 106.833 56.3052 106.931 56.2091 106.931C55.921 106.931 55.7289 106.735 55.7289 106.44C55.7289 106.342 55.7289 106.244 55.8249 106.146C55.8249 106.146 61.0115 98.5859 61.876 97.3095C62.8364 96.0332 65.0455 92.9895 65.0455 92.9895C65.0455 92.9895 65.2376 93.0877 65.4297 92.7932Z" fill="white"/>
</g>
<defs>
<clipPath id="clip0_1412_600">
<rect width="192" height="27" fill="white" transform="translate(54 87)"/>
</clipPath>
</defs>
</svg>
