<svg width="300" height="200" viewBox="0 0 300 200" fill="none" xmlns="http://www.w3.org/2000/svg">
<path d="M81.3898 94.6555C81.3356 93.4821 81.0014 92.338 80.4142 91.3165L75.0825 82.1961C74.6841 81.5138 74.4006 80.7721 74.243 80L74.0162 80.3809C73.3694 81.4923 73.0291 82.7518 73.0291 84.0336C73.0291 85.3155 73.3694 86.5749 74.0162 87.6863L78.2815 94.9916C78.9283 96.103 79.2686 97.3624 79.2686 98.6443C79.2686 99.9261 78.9283 101.186 78.2815 102.297L78.0547 102.678C77.8971 101.906 77.6136 101.164 77.2152 100.482L73.3128 93.8039L70.8171 89.5462C70.4187 88.8639 70.1352 88.1222 69.9777 87.3501L69.7508 87.7311C69.1061 88.8383 68.7649 90.0924 68.7609 91.3696C68.7569 92.6468 69.0903 93.9029 69.7281 95.014L74.0161 102.342C74.6629 103.453 75.0032 104.713 75.0032 105.994C75.0032 107.276 74.6629 108.536 74.0161 109.647L73.7892 110.028C73.6317 109.256 73.3482 108.514 72.9498 107.832L67.618 98.6218C66.9092 97.4216 66.5702 96.0432 66.6425 94.6555C60.925 96.1345 57 99.2493 57 102.88C57 107.922 64.6232 112 74.0388 112C83.4544 112 91.0777 107.922 91.0777 102.88C91.055 99.2493 87.1073 96.1345 81.3898 94.6555ZM97.4758 110.23C97.5089 109.144 97.7157 108.07 98.0884 107.048C99.9347 107.846 101.926 108.266 103.942 108.28C106.914 108.28 108.593 107.339 108.593 105.457C108.593 103.619 107.368 102.768 104.373 101.468L102.739 100.773C99.7219 99.4734 97.68 97.7927 97.68 94.4538C97.68 90.8459 100.198 88.5378 105.394 88.5378C107.384 88.5149 109.363 88.8256 111.248 89.4566C111.179 90.533 110.965 91.5956 110.612 92.6162C108.928 92.0284 107.157 91.718 105.371 91.6975C102.581 91.6975 101.31 92.7731 101.31 94.4538C101.31 96.0896 102.558 97.0532 104.804 97.9944L106.528 98.7115C110.59 100.415 112.291 102.23 112.291 105.277C112.291 108.908 109.501 111.417 104.078 111.417C101.424 111.44 99.2682 111.059 97.4758 110.23ZM129.444 95.126V110.924H126.222L126.04 109.02C125.133 110.409 123.771 111.305 121.525 111.305C117.305 111.305 114.492 108.28 114.492 102.969C114.492 97.4118 117.509 94.2521 123.431 94.2521C125.7 94.2297 127.606 94.4986 129.444 95.126ZM125.927 107.317V97.3894C125.095 97.2536 124.252 97.1936 123.408 97.2101C119.756 97.2101 118.054 99.4286 118.054 102.969C118.054 106.196 119.37 108.459 122.501 108.459C123.74 108.47 124.947 108.067 125.927 107.317ZM147.481 100.303V110.924H143.964V100.908C143.964 98.4202 143.125 97.2101 139.608 97.2101C138.673 97.2202 137.739 97.3026 136.817 97.4566V110.924H133.301V95.126C135.547 94.5882 137.997 94.2521 139.699 94.2521C145.575 94.2297 147.481 96.493 147.481 100.303ZM157.237 108.347C158.173 108.354 159.103 108.195 159.982 107.877C159.891 108.818 159.755 109.894 159.573 110.812C158.625 111.171 157.616 111.346 156.601 111.328C153.175 111.328 150.997 109.782 150.997 105.927V89.3221C152.136 88.9759 153.322 88.8021 154.514 88.8067V94.7899H160.073C160.02 95.7882 159.914 96.7831 159.755 97.7703H154.514V105.524C154.514 107.541 155.535 108.347 157.237 108.347ZM176.113 95.126V110.924H172.891L172.71 109.02C171.802 110.409 170.441 111.305 168.195 111.305C163.975 111.305 161.162 108.28 161.162 102.969C161.162 97.4118 164.179 94.2521 170.101 94.2521C172.141 94.1936 174.176 94.4894 176.113 95.126ZM172.597 107.317V97.3894C171.764 97.2536 170.921 97.1936 170.078 97.2101C166.425 97.2101 164.724 99.4286 164.724 102.969C164.724 106.196 166.04 108.459 169.171 108.459C170.41 108.47 171.617 108.067 172.597 107.317ZM194.128 100.303V110.924H190.611V100.908C190.611 98.4202 189.772 97.2101 186.255 97.2101C185.32 97.2202 184.386 97.3026 183.464 97.4566V110.924H179.948V95.126C182.194 94.5882 184.644 94.2521 186.346 94.2521C192.245 94.2297 194.128 96.493 194.128 100.303ZM211.983 88.8067V110.924H208.762L208.58 108.908C207.673 110.387 206.311 111.305 203.997 111.305C199.777 111.305 196.964 108.28 196.964 102.969C196.964 97.4118 199.981 94.2521 205.903 94.2521C206.786 94.2521 207.667 94.3346 208.535 94.4986V89.2773C209.578 88.8964 210.826 88.8067 211.983 88.8067ZM208.512 107.272V97.5462C207.586 97.3534 206.644 97.2483 205.699 97.2325C202.205 97.2325 200.548 99.3837 200.548 102.992C200.548 106.218 201.864 108.482 204.995 108.482C206.269 108.462 207.502 108.037 208.512 107.272ZM229.68 104.157H218.449C218.903 106.98 220.559 108.325 223.69 108.325C225.633 108.33 227.553 107.917 229.317 107.115C229.181 108.034 228.999 109.244 228.773 110.275C227.162 110.992 225.483 111.283 223.577 111.283C217.678 111.283 214.842 108.056 214.842 102.655C214.842 97.9496 217.043 94.2073 222.647 94.2073C227.661 94.2073 229.839 97.4566 229.839 101.445C229.879 102.352 229.826 103.261 229.68 104.157ZM218.381 101.266H226.322C226.322 98.6667 224.916 97.1653 222.488 97.1653C219.992 97.1428 218.676 98.577 218.381 101.266ZM242 94.3641C242.005 95.3661 241.898 96.3656 241.682 97.3445C240.801 97.251 239.914 97.2061 239.028 97.2101C238.162 97.214 237.298 97.2739 236.441 97.3894V110.924H232.925V95.126C234.422 94.6106 236.963 94.2521 238.937 94.2521C239.959 94.2268 240.982 94.2642 242 94.3641Z" fill="#EC0000"/>
</svg>
